<?xml version="1.0" encoding="utf-8"?>
<!-- Generator: Adobe Illustrator 23.0.3, SVG Export Plug-In . SVG Version: 6.00 Build 0)  -->
<svg version="1.1" id="Layer_1" xmlns:ev="http://www.w3.org/2001/xml-events"
	 xmlns="http://www.w3.org/2000/svg" xmlns:xlink="http://www.w3.org/1999/xlink" x="0px" y="0px" viewBox="0 0 318.6 318.6"
	 style="enable-background:new 0 0 318.6 318.6;" xml:space="preserve">
<style type="text/css">
	.st0{fill:#133444;}
	.st1{fill:#C42370;}
	.st2{fill:#1C4D6B;}
	.st3{fill:#1D4259;}
	.st4{fill:#4B6B9A;}
	.st5{fill:#343535;}
	.st6{fill:#3E5578;}
	.st7{fill:#6DB2D8;}
	.st8{fill:#335F8A;}
	.st9{fill:#529BBA;}
</style>
<g id="portis">
	<g id="Layer_1-2">
		<polygon class="st0" points="66.8,180.9 73.7,177.9 159.3,140.7 251.8,180.9 217,252.8 132.1,264.7 68.2,195.7 		"/>
		<path class="st1" d="M232.6,136.7c-15.3-18.4-36.9-30.4-60.6-33.5c-0.6,0-1-0.1-1.6-0.1c-7.4-0.9-14.8-0.9-22.2,0
			c-0.6,0-1,0.1-1.6,0.1c-23.7,3.1-45.3,15.1-60.6,33.5l0,0l-3.8,6.4l-6.4,10.7l-4.7,7.8l0,0c0,0.1-0.1,0.4-0.3,0.6v0.1l10.3,6.1
			l65.6,38.8l12.7,7.4V122l-12.7,5.7v-13.8l12.7-5.7l12.7,5.7l64.4,29.2L232.6,136.7z"/>
		<path class="st2" d="M254.7,204c0,30.9-14.7,59.7-37.4,78.3c-9,7.3-19.1,13-30.1,16.7c-9,3-18.4,4.6-27.8,4.6
			c-52.8,0-95.4-46.9-95.4-99.5c0-7.8,1-15.5,2.9-23.1l92.5,54.8l92.5-54.8C253.7,188.5,254.7,196.2,254.7,204z"/>
		<polygon points="148.2,102.9 159.3,108 146.6,113.7 146.6,102.3 		"/>
		<polygon points="146.6,127.7 159.3,121.9 159.3,214.6 146.6,207.1 		"/>
		<polygon class="st3" points="159.3,121.9 159.3,214.6 248,162.2 		"/>
		<polygon class="st4" points="159.3,15.1 159.3,121.9 248,162.2 		"/>
		<path class="st5" d="M159.3,121.9v92.7l-12.7-7.4l-75.9-44.9h-0.1h0.1c0-0.1,0.1-0.4,0.3-0.6l0,0l11.1-18.4l64.4-29.2v14
			L159.3,121.9z"/>
		<polygon class="st6" points="159.3,121.9 159.3,214.6 146.6,207.1 70.8,162.2 70.6,162.2 70.8,162.1 146.6,127.7 		"/>
		<polygon class="st7" points="159.3,15.1 159.3,121.9 70.6,162.2 		"/>
		<path class="st8" d="M123.4,296c1.3,0.6,2.7,1.1,4,1.7C126.1,297.1,124.8,296.5,123.4,296z"/>
		<path class="st8" d="M127.4,297.5c1.3,0.6,2.7,1,4.1,1.4C130.1,298.5,128.8,298.1,127.4,297.5z"/>
		<path class="st8" d="M135.1,300.1c1.1,0.3,2.1,0.6,3.1,0.9C137.2,300.7,136.1,300.4,135.1,300.1z"/>
		<path class="st7" d="M66.8,180.9l92.5,54.8c-1.3,8.4-3.4,16.4-6.7,24.2c-7.4,18-22.4,36.8-51.3,22.4l0,0
			c-22.8-18.5-37.4-47.5-37.4-78.4C63.9,196.2,64.9,188.5,66.8,180.9z"/>
		<path class="st9" d="M217,282.4L217,282.4c-0.6,0.4,0,0-1.9,1.6l-0.9,0.6c0.9-0.6-0.9,0.6-1.3,0.9c-0.6,0.4-2.1,1.6-1.6,1.1
			c1.6-1.1-1.3,0.9-1.9,1.3c-0.6,0.4-1.1,0.6-1.6,1l-1,0.7c-0.7,0.4-0.4,0.3-1,0.7c0,0-0.4,0.4-0.6,0.4c0.6-0.4-0.7,0.3-1.3,0.7
			c-0.6,0.3-1.3,0.6-1.9,1c-0.6,0.3-1.4,0.7-2,1l-0.9,0.4c-0.6,0.3-0.3,0-0.9,0.4c-0.6,0.3-1.3,0.6-2,1c-0.7,0.3,0,0-2.4,1.1
			c2.4-1.1,0,0-1.3,0.6c1.3-0.6-2.3,0.9-3.8,1.4c-0.6,0.1-3.7,1.1-4.3,1.3c-0.6,0.1-1.3,0.4-1.9,0.6c-1.1,0.3-2.1,0.6-3.1,0.9
			c-0.4,0.1-0.9,0.1-1.1,0.3l-0.7,0.1c-0.6,0.1-1.1,0.3-1.7,0.4c-0.6,0.1-1,0.1-1.6,0.3c-0.6,0.1-1,0.1-1.4,0.3
			c-0.4,0.1-1.1,0.1-1.6,0.3c-0.3,0-0.6,0-0.7,0.1l-1.1,0.1h-0.6c-0.4,0-0.9,0.1-1.3,0.1c-0.6,0-1.1,0.1-1.7,0.1c-0.4,0-0.9,0-1.3,0
			c-0.4,0-0.7,0-1.1,0l0,0c-0.4,0-0.9,0-1.3,0c-0.6,0-1.1,0-1.7,0s-1.1,0-1.9,0c-0.7,0-1.1,0-1.9,0c-0.7,0-1.1,0-1.7,0
			c-0.4,0-0.9,0-1.3,0l0,0c-0.4,0-0.7,0-1.1,0s-0.9,0-1.3,0c-0.6,0-1.1-0.1-1.7-0.1c-0.4,0-0.9,0-1.3-0.1h-0.6
			c-0.4,0-0.9-0.1-1.1-0.1c-0.3,0-0.6,0-0.7-0.1c-0.6,0-1.1-0.1-1.6-0.3c-0.6,0-1-0.1-1.4-0.3c-0.4-0.1-1-0.1-1.6-0.3
			c-0.6-0.1-1.1-0.3-1.7-0.4l-0.7-0.1c-0.4,0-0.9-0.1-1.1-0.3c-1.1-0.3-2.1-0.6-3.1-0.9l-1.9-0.6c-0.6-0.1-1.1-0.3-1.7-0.6
			c-1.4-0.4-2.7-1-4.1-1.4c-1.3-0.6-2.7-1.1-4-1.7c-0.6-0.3-1.3-0.6-2-0.9s-1.3-0.6-2-1c-0.6-0.3-1.3-0.6-1.9-1l0,0
			c-0.6-0.3-1.3-0.7-1.9-1c-0.6-0.3-0.9-0.4-1.4-0.9c-1.4-0.9-2.3-1.4-1.4-0.9l-0.9-0.6c-1.6-1-1.6-1-1.6-1l-0.6-0.3
			c-1.4-1-1.4-1-1.4-1c-0.6-0.4-1.1-0.7-1.7-1.1c-0.6-0.4-1.3-0.9-1.9-1.3c-0.6-0.4-1.1-1-1.6-1.3l-0.6-0.4c-1.4-1.1-1-0.7-1.4-1.1
			l0,0c28.9,14.4,43.8-4.7,51.2-22.5c3.1-7.8,5.4-16,6.7-24.2c1.3,8.4,3.4,16.7,6.7,24.5C173.6,277.7,188.1,296.7,217,282.4z"/>
		<path class="st8" d="M180.4,301c1.1-0.3,2.1-0.6,3.1-0.9C182.5,300.4,181.4,300.7,180.4,301z"/>
		<path class="st8" d="M187.1,299c1.4-0.4,2.7-0.9,4.1-1.4C189.8,298.1,188.5,298.5,187.1,299z"/>
		<path class="st8" d="M191,297.7c1.3-0.6,3-1.1,4.3-1.9C193.8,296.5,192.2,297.1,191,297.7z"/>
		<path class="st4" d="M254.7,204c0,30.9-14.7,59.7-37.4,78.3c-28.9,14.4-43.9-4.6-51.3-22.4c-3.1-7.8-5.4-16-6.7-24.2l92.5-54.8
			C253.7,188.5,254.7,196.2,254.7,204z"/>
	</g>
</g>
</svg>
