<?xml version="1.0" encoding="utf-8"?>
<!-- Generator: Adobe Illustrator 23.0.3, SVG Export Plug-In . SVG Version: 6.00 Build 0)  -->
<svg version="1.1" id="Layer_1" xmlns:ev="http://www.w3.org/2001/xml-events"
	 xmlns="http://www.w3.org/2000/svg" xmlns:xlink="http://www.w3.org/1999/xlink" x="0px" y="0px" viewBox="0 0 318.6 318.6"
	 style="enable-background:new 0 0 318.6 318.6;" xml:space="preserve">
<style type="text/css">
	.st0{fill:#F1BA0D;}
</style>
<g>
	<path class="st0" d="M110.3,73.7L81.8,57.1l77.5-45.3L237,57.1l-28.5,16.6l-49.2-28.5L110.3,73.7z M257.3,102.2v33.3l28.5-16.6
		V85.6l-28.5-16.8l-28.5,16.6L257.3,102.2z M130.8,85.6l28.5,16.6l28.5-16.6l-28.5-16.8L130.8,85.6z M237,114.1l-28.5-16.6
		l-49.2,28.5l-49-28.5l-28.5,16.6v33.3l49,28.5v57l28.5,16.6l28.5-16.6v-57l49.2-28.5V114.1z M257.3,216.4l-49,28.5v33.3L286,233
		v-90.3l-28.7,16.8V216.4z M208.3,221.2l28.5-16.6v-33.6l-28.5,16.6V221.2z M130.8,256.9v33.3l28.5,16.6l28.5-16.6v-33.3l-28.5,16.6
		L130.8,256.9z M32.6,119l28.5,16.6v-33.3l28.5-16.6L61.3,68.8L32.9,85.4V119H32.6z M61.3,159.4l-28.5-16.6v90.3l77.7,45.3v-33.3
		l-49.2-28.7V159.4z M110.3,187.9l-28.5-16.6v33.3l28.5,16.6V187.9z"/>
</g>
</svg>
