<svg width="22" height="22" viewBox="0 0 22 22" fill="none" xmlns="http://www.w3.org/2000/svg">
<path d="M11 0C17.0757 0 22 4.9253 22 11C22 17.0757 17.0757 22 11 22C4.9253 22 0 17.0752 0 11C0 4.9253 4.9253 0 11 0Z" fill="#F5AC37"/>
<path d="M11.4054 11.7767H15.5852C15.6743 11.7767 15.7164 11.7767 15.7228 11.6598C15.757 11.2346 15.757 10.8069 15.7228 10.3812C15.7228 10.2986 15.6818 10.2644 15.5922 10.2644H7.27361C7.17065 10.2644 7.14293 10.2986 7.14293 10.3951V11.6188C7.14293 11.7767 7.14293 11.7767 7.30776 11.7767H11.4054V11.7767ZM15.2561 8.83435C15.2679 8.80317 15.2679 8.76901 15.2561 8.73832C15.1863 8.58635 15.1036 8.44132 15.0076 8.30519C14.863 8.07254 14.6927 7.8582 14.4987 7.66565C14.4071 7.54932 14.3012 7.44487 14.1824 7.35627C13.5874 6.84988 12.88 6.49149 12.1197 6.31131C11.7361 6.22518 11.344 6.1841 10.951 6.18756H7.25925C7.15629 6.18756 7.14243 6.22865 7.14243 6.31824V8.75862C7.14243 8.86158 7.14243 8.8893 7.27311 8.8893H15.2066C15.2066 8.8893 15.2754 8.87544 15.2892 8.83435H15.2556H15.2561ZM15.2561 13.2067C15.1392 13.1939 15.0214 13.1939 14.9046 13.2067H7.28054C7.17758 13.2067 7.14293 13.2067 7.14293 13.3443V15.7303C7.14293 15.8402 7.14293 15.8679 7.28054 15.8679H10.8005C10.9688 15.8807 11.1371 15.8689 11.302 15.8337C11.8128 15.7971 12.3152 15.6862 12.7944 15.5036C12.9686 15.4432 13.1369 15.3645 13.2958 15.2699H13.3439C14.169 14.8407 14.8393 14.1665 15.262 13.3389C15.262 13.3389 15.31 13.2349 15.2561 13.2077V13.2067ZM5.76137 17.1049V17.0638V15.462V14.919V13.3033C5.76137 13.2137 5.76137 13.2003 5.65148 13.2003H4.15953C4.07686 13.2003 4.04271 13.2003 4.04271 13.0904V11.7841H5.63762C5.72672 11.7841 5.76137 11.7841 5.76137 11.6673V10.3748C5.76137 10.2921 5.76137 10.2718 5.65148 10.2718H4.15953C4.07686 10.2718 4.04271 10.2718 4.04271 10.162V8.95216C4.04271 8.87643 4.04271 8.85613 4.1526 8.85613H5.63069C5.73365 8.85613 5.76137 8.85613 5.76137 8.72545V5.01984C5.76137 4.90995 5.76137 4.88223 5.89898 4.88223H11.0549C11.4292 4.89708 11.8009 4.93817 12.1687 5.00598C12.9266 5.14607 13.6547 5.41684 14.3205 5.80344C14.762 6.06331 15.1684 6.37715 15.5303 6.7385C15.8025 7.02115 16.0481 7.32706 16.2659 7.65278C16.4822 7.98294 16.6619 8.33588 16.8029 8.70466C16.8203 8.80069 16.9123 8.86554 17.0084 8.8492H18.239C18.3969 8.8492 18.3969 8.8492 18.4038 9.00067V10.1283C18.4038 10.2382 18.3627 10.2659 18.2523 10.2659H17.3034C17.2074 10.2659 17.1796 10.2659 17.1866 10.3897C17.2242 10.8084 17.2242 11.2287 17.1866 11.6475C17.1866 11.7643 17.1866 11.7781 17.3178 11.7781H18.4033C18.4513 11.84 18.4033 11.9019 18.4033 11.9643C18.4102 12.044 18.4102 12.1247 18.4033 12.2043V13.0364C18.4033 13.1533 18.3691 13.1879 18.2657 13.1879H16.9663C16.8757 13.1706 16.7876 13.2285 16.7668 13.3186C16.4574 14.123 15.9624 14.8442 15.3229 15.4224C15.0892 15.6327 14.8437 15.8308 14.5873 16.0134C14.3121 16.1718 14.0443 16.3366 13.7621 16.4673C13.2429 16.701 12.6984 16.8732 12.1395 16.9826C11.6089 17.0777 11.0708 17.1207 10.5307 17.1133H5.75939V17.1064L5.76137 17.1049Z" fill="#FEFEFD"/>
</svg>
