<svg width="32" height="32" viewBox="0 0 32 32" fill="none" xmlns="http://www.w3.org/2000/svg">
<path opacity="0.2" d="M12.6193 22.7609L11.1161 25.7673C11.016 25.9692 10.8503 26.1312 10.6461 26.2268C10.442 26.3224 10.2115 26.3458 9.99223 26.2934C6.9249 25.5435 4.28064 24.2361 2.35472 22.5621C2.20765 22.4356 2.10025 22.2694 2.04543 22.0833C1.99061 21.8973 1.99072 21.6994 2.04573 21.5134L6.29246 7.35757C6.33533 7.21483 6.40948 7.08345 6.50952 6.97297C6.60956 6.8625 6.73297 6.77571 6.87078 6.71894C8.07053 6.22772 9.31138 5.84361 10.5788 5.57108C10.8203 5.51817 11.0728 5.55637 11.2879 5.67834C11.5029 5.80032 11.6652 5.99746 11.7437 6.23189L12.7404 9.22184V9.22182C14.9032 8.92604 17.0963 8.92604 19.2591 9.22182V9.22184L20.2558 6.23189C20.3343 5.99746 20.4966 5.80032 20.7117 5.67834C20.9267 5.55637 21.1792 5.51817 21.4207 5.57108C22.6882 5.84361 23.929 6.22773 25.1288 6.71895C25.2666 6.77572 25.39 6.8625 25.49 6.97298C25.5901 7.08345 25.6642 7.21484 25.7071 7.35758L29.9538 21.5134C30.0088 21.6994 30.0089 21.8973 29.9541 22.0833C29.8993 22.2694 29.7919 22.4356 29.6448 22.5621C27.7189 24.236 25.0746 25.5435 22.0073 26.2934C21.7881 26.3459 21.5575 26.3224 21.3534 26.2268C21.1492 26.1312 20.9835 25.9692 20.8834 25.7673L19.3802 22.761C18.2606 22.9213 17.1309 23.0012 15.9998 23C14.8687 23.0012 13.7389 22.9213 12.6193 22.761L12.6193 22.7609Z" fill="black" fill-opacity="0.48"/>
<path d="M12 19.5C12.8284 19.5 13.5 18.8284 13.5 18C13.5 17.1716 12.8284 16.5 12 16.5C11.1716 16.5 10.5 17.1716 10.5 18C10.5 18.8284 11.1716 19.5 12 19.5Z" fill="black" fill-opacity="0.48"/>
<path d="M20 19.5C20.8284 19.5 21.5 18.8284 21.5 18C21.5 17.1716 20.8284 16.5 20 16.5C19.1716 16.5 18.5 17.1716 18.5 18C18.5 18.8284 19.1716 19.5 20 19.5Z" fill="black" fill-opacity="0.48"/>
<path d="M9.30029 10C11.4682 9.3215 13.7285 8.98414 16.0001 9.00005C18.2716 8.98414 20.5319 9.32149 22.6998 10" stroke="black" stroke-opacity="0.48" stroke-width="2" stroke-linecap="round" stroke-linejoin="round"/>
<path d="M22.6996 22C20.5317 22.6785 18.2715 23.0159 16 23C13.7284 23.0159 11.4682 22.6785 9.30029 22" stroke="black" stroke-opacity="0.48" stroke-width="2" stroke-linecap="round" stroke-linejoin="round"/>
<path d="M19.3804 22.761L20.8835 25.7673C20.9837 25.9692 21.1494 26.1312 21.3535 26.2268C21.5577 26.3224 21.7882 26.3459 22.0074 26.2934C25.0748 25.5435 27.719 24.236 29.645 22.5621C29.792 22.4356 29.8994 22.2694 29.9543 22.0833C30.0091 21.8973 30.009 21.6994 29.9539 21.5134L25.7072 7.35758C25.6643 7.21484 25.5902 7.08345 25.4902 6.97298C25.3901 6.8625 25.2667 6.77572 25.1289 6.71895C23.9291 6.22773 22.6883 5.84361 21.4208 5.57108C21.1793 5.51817 20.9268 5.55637 20.7118 5.67834C20.4968 5.80032 20.3344 5.99746 20.2559 6.23189L19.2593 9.22184" stroke="black" stroke-opacity="0.48" stroke-width="2" stroke-linecap="round" stroke-linejoin="round"/>
<path d="M12.6193 22.7609L11.1161 25.7673C11.016 25.9692 10.8503 26.1312 10.6461 26.2268C10.442 26.3224 10.2115 26.3458 9.99223 26.2934C6.9249 25.5435 4.28064 24.2361 2.35472 22.5621C2.20765 22.4356 2.10025 22.2694 2.04543 22.0833C1.99061 21.8973 1.99072 21.6994 2.04573 21.5134L6.29246 7.35757C6.33533 7.21483 6.40948 7.08345 6.50952 6.97297C6.60956 6.8625 6.73297 6.77571 6.87078 6.71894C8.07053 6.22772 9.31138 5.84361 10.5788 5.57108C10.8203 5.51817 11.0728 5.55637 11.2879 5.67834C11.5029 5.80032 11.6652 5.99746 11.7437 6.23189L12.7404 9.22184" stroke="black" stroke-opacity="0.48" stroke-width="2" stroke-linecap="round" stroke-linejoin="round"/>
</svg>
