<svg width="73" height="61" viewBox="0 0 73 61" fill="none" xmlns="http://www.w3.org/2000/svg">
<mask id="mask0_1421_10264" style="mask-type:alpha" maskUnits="userSpaceOnUse" x="0" y="0" width="73" height="61">
<rect width="73" height="61" fill="#C4C4C4"/>
</mask>
<g mask="url(#mask0_1421_10264)">
<path d="M17.4048 5.45638C17.3991 3.98123 18.5957 2.78179 20.0774 2.77736C21.5591 2.77292 22.7649 3.96517 22.7705 5.44033L22.7778 7.33296C25.8121 6.66112 30.212 7.75408 35.8537 14.474C42.2329 22.0723 51.7193 16.752 58.369 13.0225C60.0638 12.072 61.5744 11.2248 62.8023 10.7212L64.0988 33.6406C63.6892 33.8744 63.2049 34.1629 62.6564 34.4897C57.7777 37.3961 47.82 43.3282 40.1773 40.7232C37.2903 39.7391 35.0845 38.285 33.0404 36.9374C29.8997 34.8669 27.1407 33.0481 22.8788 33.5726L23.0501 78.1058C23.0557 79.5809 21.8592 80.7803 20.3775 80.7848C18.8958 80.7892 17.69 79.597 17.6843 78.1218L17.4048 5.45638Z" fill="#FFD60A"/>
</g>
</svg>
