<svg width="181" height="48" viewBox="0 0 181 48" fill="none" xmlns="http://www.w3.org/2000/svg">
<path d="M47.3613 14.8177C47.1593 14.3436 46.9406 13.8728 46.7048 13.4058C40.7027 1.51555 25.9492 -3.38018 13.7519 2.47085C1.55468 8.32188 -3.46747 22.704 2.53465 34.5942C5.54005 40.5479 10.7396 44.748 16.7138 46.7232L16.1685 10.6131C16.1527 9.56793 17.0086 8.70878 18.0802 8.69414C19.1517 8.67951 20.0332 9.51493 20.049 10.5601L20.0692 11.901C22.2583 11.4014 25.449 12.1417 29.5825 16.8594C34.2561 22.1937 41.0747 18.3504 45.8543 15.6563C46.3835 15.358 46.8877 15.0738 47.3613 14.8177Z" fill="#FFC300"/>
<path d="M48 31.502C44.2392 33.7081 37.9239 37.037 32.9171 35.4248C30.8214 34.7499 29.2146 33.7367 27.7257 32.7977C25.4379 31.355 23.4281 30.0876 20.3499 30.4924L20.6094 47.6759C25.5061 48.4682 30.6942 47.8285 35.4875 45.5292C41.6665 42.5651 46.0042 37.4117 48 31.502Z" fill="#FFC300"/>
<path d="M65.24 31.288C63.544 31.288 62.088 30.928 60.872 30.208C59.656 29.472 58.72 28.456 58.064 27.16C57.408 25.848 57.08 24.336 57.08 22.624C57.08 20.912 57.408 19.4 58.064 18.088C58.72 16.776 59.656 15.752 60.872 15.016C62.088 14.28 63.544 13.912 65.24 13.912C67.256 13.912 68.904 14.416 70.184 15.424C71.48 16.416 72.288 17.816 72.608 19.624H69.224C69.016 18.712 68.568 18 67.88 17.488C67.208 16.96 66.312 16.696 65.192 16.696C63.64 16.696 62.424 17.224 61.544 18.28C60.664 19.336 60.224 20.784 60.224 22.624C60.224 24.464 60.664 25.912 61.544 26.968C62.424 28.008 63.64 28.528 65.192 28.528C66.312 28.528 67.208 28.288 67.88 27.808C68.568 27.312 69.016 26.632 69.224 25.768H72.608C72.288 27.496 71.48 28.848 70.184 29.824C68.904 30.8 67.256 31.288 65.24 31.288ZM75.2553 31V19.096H77.9913L78.2793 21.328C78.7113 20.56 79.2953 19.952 80.0313 19.504C80.7833 19.04 81.6633 18.808 82.6713 18.808V22.048H81.8073C81.1353 22.048 80.5353 22.152 80.0073 22.36C79.4793 22.568 79.0633 22.928 78.7593 23.44C78.4713 23.952 78.3273 24.664 78.3273 25.576V31H75.2553ZM90.272 31.288C89.12 31.288 88.08 31.024 87.152 30.496C86.24 29.968 85.512 29.24 84.968 28.312C84.44 27.368 84.176 26.28 84.176 25.048C84.176 23.816 84.448 22.736 84.992 21.808C85.536 20.864 86.264 20.128 87.176 19.6C88.104 19.072 89.144 18.808 90.296 18.808C91.432 18.808 92.456 19.072 93.368 19.6C94.296 20.128 95.024 20.864 95.552 21.808C96.096 22.736 96.368 23.816 96.368 25.048C96.368 26.28 96.096 27.368 95.552 28.312C95.024 29.24 94.296 29.968 93.368 30.496C92.44 31.024 91.408 31.288 90.272 31.288ZM90.272 28.624C91.072 28.624 91.768 28.328 92.36 27.736C92.952 27.128 93.248 26.232 93.248 25.048C93.248 23.864 92.952 22.976 92.36 22.384C91.768 21.776 91.08 21.472 90.296 21.472C89.48 21.472 88.776 21.776 88.184 22.384C87.608 22.976 87.32 23.864 87.32 25.048C87.32 26.232 87.608 27.128 88.184 27.736C88.776 28.328 89.472 28.624 90.272 28.624ZM101.021 31L97.5408 19.096H100.589L102.653 27.664L105.053 19.096H108.461L110.861 27.664L112.949 19.096H115.997L112.493 31H109.301L106.757 22.096L104.213 31H101.021ZM122.985 31.288C121.865 31.288 120.865 31.016 119.985 30.472C119.105 29.928 118.409 29.184 117.897 28.24C117.385 27.296 117.129 26.224 117.129 25.024C117.129 23.824 117.385 22.76 117.897 21.832C118.409 20.888 119.105 20.152 119.985 19.624C120.865 19.08 121.865 18.808 122.985 18.808C123.881 18.808 124.665 18.976 125.337 19.312C126.009 19.648 126.553 20.12 126.969 20.728V13.72H130.041V31H127.305L126.969 29.296C126.585 29.824 126.073 30.288 125.433 30.688C124.809 31.088 123.993 31.288 122.985 31.288ZM123.633 28.6C124.625 28.6 125.433 28.272 126.057 27.616C126.697 26.944 127.017 26.088 127.017 25.048C127.017 24.008 126.697 23.16 126.057 22.504C125.433 21.832 124.625 21.496 123.633 21.496C122.657 21.496 121.849 21.824 121.209 22.48C120.569 23.136 120.249 23.984 120.249 25.024C120.249 26.064 120.569 26.92 121.209 27.592C121.849 28.264 122.657 28.6 123.633 28.6ZM138.089 31.288C137.033 31.288 136.105 31.12 135.305 30.784C134.505 30.432 133.865 29.952 133.385 29.344C132.905 28.736 132.617 28.032 132.521 27.232H135.617C135.713 27.696 135.969 28.096 136.385 28.432C136.817 28.752 137.369 28.912 138.041 28.912C138.713 28.912 139.201 28.776 139.505 28.504C139.825 28.232 139.985 27.92 139.985 27.568C139.985 27.056 139.761 26.712 139.313 26.536C138.865 26.344 138.241 26.16 137.441 25.984C136.929 25.872 136.409 25.736 135.881 25.576C135.353 25.416 134.865 25.216 134.417 24.976C133.985 24.72 133.633 24.4 133.361 24.016C133.089 23.616 132.953 23.128 132.953 22.552C132.953 21.496 133.369 20.608 134.201 19.888C135.049 19.168 136.233 18.808 137.753 18.808C139.161 18.808 140.281 19.136 141.113 19.792C141.961 20.448 142.465 21.352 142.625 22.504H139.721C139.545 21.624 138.881 21.184 137.729 21.184C137.153 21.184 136.705 21.296 136.385 21.52C136.081 21.744 135.929 22.024 135.929 22.36C135.929 22.712 136.161 22.992 136.625 23.2C137.089 23.408 137.705 23.6 138.473 23.776C139.305 23.968 140.065 24.184 140.753 24.424C141.457 24.648 142.017 24.992 142.433 25.456C142.849 25.904 143.057 26.552 143.057 27.4C143.073 28.136 142.881 28.8 142.481 29.392C142.081 29.984 141.505 30.448 140.753 30.784C140.001 31.12 139.113 31.288 138.089 31.288ZM145.779 31V13.72H148.851V20.92C149.251 20.264 149.787 19.752 150.459 19.384C151.147 19 151.931 18.808 152.811 18.808C154.283 18.808 155.419 19.272 156.219 20.2C157.035 21.128 157.443 22.488 157.443 24.28V31H154.395V24.568C154.395 23.544 154.187 22.76 153.771 22.216C153.371 21.672 152.731 21.4 151.851 21.4C150.987 21.4 150.267 21.704 149.691 22.312C149.131 22.92 148.851 23.768 148.851 24.856V31H145.779ZM162.036 17.248C161.476 17.248 161.012 17.08 160.644 16.744C160.292 16.408 160.116 15.984 160.116 15.472C160.116 14.96 160.292 14.544 160.644 14.224C161.012 13.888 161.476 13.72 162.036 13.72C162.596 13.72 163.052 13.888 163.404 14.224C163.772 14.544 163.956 14.96 163.956 15.472C163.956 15.984 163.772 16.408 163.404 16.744C163.052 17.08 162.596 17.248 162.036 17.248ZM160.5 31V19.096H163.572V31H160.5ZM166.779 36.28V19.096H169.515L169.851 20.8C170.235 20.272 170.739 19.808 171.363 19.408C172.003 19.008 172.827 18.808 173.835 18.808C174.955 18.808 175.955 19.08 176.835 19.624C177.715 20.168 178.411 20.912 178.923 21.856C179.435 22.8 179.691 23.872 179.691 25.072C179.691 26.272 179.435 27.344 178.923 28.288C178.411 29.216 177.715 29.952 176.835 30.496C175.955 31.024 174.955 31.288 173.835 31.288C172.939 31.288 172.155 31.12 171.483 30.784C170.811 30.448 170.267 29.976 169.851 29.368V36.28H166.779ZM173.187 28.6C174.163 28.6 174.971 28.272 175.611 27.616C176.251 26.96 176.571 26.112 176.571 25.072C176.571 24.032 176.251 23.176 175.611 22.504C174.971 21.832 174.163 21.496 173.187 21.496C172.195 21.496 171.379 21.832 170.739 22.504C170.115 23.16 169.803 24.008 169.803 25.048C169.803 26.088 170.115 26.944 170.739 27.616C171.379 28.272 172.195 28.6 173.187 28.6Z" fill="#171923"/>
</svg>
