<svg width="1027" height="629" viewBox="0 0 1027 629" fill="none" xmlns="http://www.w3.org/2000/svg">
<path d="M555.98 225.698H593.538V239.455L611.041 259.465V284.478L633.649 310.325H670.112V322.831L654.798 340.34V359.516L621.98 397.036V443.309L601.925 466.238V505.007L577.13 533.355H555.98L542.853 518.348V483.747L527.539 466.238V402.872L513.682 387.031V359.516L491.439 334.087L473.937 354.097H446.224L413.042 316.161V300.32L426.898 284.478V248.627L467.009 202.77H518.423L547.229 235.703L555.98 225.698Z" stroke="black" stroke-opacity="0.07" stroke-width="2"/>
<path d="M269.374 627.153H292.711V586.716L273.75 565.038L316.777 515.846V493.335L337.562 469.573V447.478L361.992 419.547V396.202L337.562 368.271H301.098L257.341 318.245H200.822V352.013L186.601 368.271V396.202L231.452 447.478V515.846L244.579 530.854V598.805L269.374 627.153Z" stroke="black" stroke-opacity="0.07" stroke-width="2"/>
<path d="M49.1323 115.225H1V102.302L26.8894 72.7032H43.2981L65.9057 57.6955H169.463L186.966 63.5318H220.513L232.91 49.3579H266.822V72.7032H236.557L216.137 96.0484L232.91 115.225H258.435L266.822 86.0433H295.993L309.849 101.885V122.729L289.794 145.657V165.25H248.59L204.104 216.11V259.882L192.435 246.542V228.199H158.889L142.845 246.542V276.974H169.463L192.435 303.238V333.253H180.767L154.513 303.238H136.281L60.0715 216.11V189.846L89.2426 156.496V96.0484H65.9057L49.1323 115.225Z" stroke="black" stroke-opacity="0.07" stroke-width="2"/>
<path d="M214.678 16.4243H236.557V29.3476L214.678 54.3603H186.966L176.391 42.2708V28.9307H203.739L214.678 16.4243Z" stroke="black" stroke-opacity="0.07" stroke-width="2"/>
<path d="M333.915 1H253.695V9.33759L271.562 29.7647H303.65V20.1765H323.706L333.915 8.50383V1Z" stroke="black" stroke-opacity="0.07" stroke-width="2"/>
<path d="M356.158 61.4477L343.396 76.0385V88.9617H364.545L375.849 76.0385H397.363L411.219 60.1971H435.285L450.235 43.105V21.4273L435.285 4.33521H352.147L337.197 21.4273L356.158 43.105V61.4477Z" stroke="black" stroke-opacity="0.07" stroke-width="2"/>
<path d="M515.505 98.1329V108.138V129.816H491.804L474.301 149.826V168.169H448.412V190.263H485.605L504.931 168.169L511.494 160.665L523.163 174.005H551.24V200.685H599.737V224.864L631.825 261.55V288.23H671.571L682.874 275.307V253.212H719.703L753.25 291.565V334.504H762.366V304.488L799.924 261.55L830.189 296.151V334.504H854.619L876.498 309.491L854.619 284.478V275.307H886.708L906.034 253.212V233.202L881.603 205.271V184.844H900.564L910.045 174.005H923.172V118.977H910.045L900.564 129.816L886.708 113.974L900.564 98.1329H930.829L944.685 113.974H971.669L1000.11 81.4577V63.5319H958.542L944.685 47.6904H844.774L830.189 31.0153H682.874L665.007 51.4424H631.825L613.593 72.2863H590.621L572.389 51.4424H541.759L515.505 81.4577H491.439V98.1329H515.505Z" stroke="black" stroke-opacity="0.07" stroke-width="2"/>
<path d="M646.775 491.25H633.284V467.905L638.753 461.652V439.974H650.057V425.8H662.455V443.726L653.703 453.731V468.739L646.775 476.66V491.25Z" stroke="black" stroke-opacity="0.07" stroke-width="2"/>
<path d="M903.482 475.409H878.322V512.511L869.57 522.516V532.521H906.034L919.89 516.68H929.371L953.437 544.194H982.973L1026 495.002V481.245L999.746 451.23V424.55H992.454L969.117 451.23L963.647 444.977L969.117 438.723V429.969H940.675L912.233 462.486H903.482V475.409Z" stroke="black" stroke-opacity="0.07" stroke-width="2"/>
<path d="M964.011 364.936H947.967V386.614L957.083 397.036H971.304V404.956H1004.85V416.212L1013.24 425.8H1025.63V416.212L989.9 375.358H977.503L971.304 382.445H964.011V364.936Z" stroke="black" stroke-opacity="0.07" stroke-width="2"/>
</svg>
