<svg width="1411" height="756" viewBox="0 0 1411 756" fill="none" xmlns="http://www.w3.org/2000/svg">
<path d="M763.5 272H815V288.5L839 312.5V342.5L870 373.5H920V388.5L899 409.5V432.5L854 477.5V533L826.5 560.5V607L792.5 641H763.5L745.5 623V581.5L724.5 560.5V484.5L705.5 465.5V432.5L675 402L651 426H613L567.5 380.5V361.5L586.5 342.5V299.5L641.5 244.5H712L751.5 284L763.5 272Z" stroke="black" stroke-width="5"/>
<path d="M370.5 753.5H402.5V705L376.5 679L435.5 620V593L464 564.5V538L497.5 504.5V476.5L464 443H414L354 383H276.5V423.5L257 443V476.5L318.5 538V620L336.5 638V719.5L370.5 753.5Z" stroke="black" stroke-width="5"/>
<path d="M68.5 139.5H2.5V124L38 88.5H60.5L91.5 70.5H233.5L257.5 77.5H303.5L320.5 60.5H367V88.5H325.5L297.5 116.5L320.5 139.5H355.5L367 104.5H407L426 123.5V148.5L398.5 176V199.5H342L281 260.5V313L265 297V275H219L197 297V333.5H233.5L265 365V401H249L213 365H188L83.5 260.5V229L123.5 189V116.5H91.5L68.5 139.5Z" stroke="black" stroke-width="5"/>
<path d="M295.5 21H325.5V36.5L295.5 66.5H257.5L243 52V36H280.5L295.5 21Z" stroke="black" stroke-width="5"/>
<path d="M459 2.5H349V12.5L373.5 37H417.5V25.5H445L459 11.5V2.5Z" stroke="black" stroke-width="5"/>
<path d="M489.5 75L472 92.5V108H501L516.5 92.5H546L565 73.5H598L618.5 53V27L598 6.5H484L463.5 27L489.5 53V75Z" stroke="black" stroke-width="5"/>
<path d="M708 119V131V157H675.5L651.5 181V203H616V229.5H667L693.5 203L702.5 194L718.5 210H757V242H823.5V271L867.5 315V347H922L937.5 331.5V305H988L1034 351V402.5H1046.5V366.5L1098 315L1139.5 356.5V402.5H1173L1203 372.5L1173 342.5V331.5H1217L1243.5 305V281L1210 247.5V223H1236L1249 210H1267V144H1249L1236 157L1217 138L1236 119H1277.5L1296.5 138H1333.5L1372.5 99V77.5H1315.5L1296.5 58.5H1159.5L1139.5 38.5H937.5L913 63H867.5L842.5 88H811L786 63H744L708 99H675V119H708Z" stroke="black" stroke-width="5"/>
<path d="M888 590.5H869.5V562.5L877 555V529H892.5V512H909.5V533.5L897.5 545.5V563.5L888 573V590.5Z" stroke="black" stroke-width="5"/>
<path d="M1240 571.5H1205.5V616L1193.5 628V640H1243.5L1262.5 621H1275.5L1308.5 654H1349L1408 595V578.5L1372 542.5V510.5H1362L1330 542.5L1322.5 535L1330 527.5V517H1291L1252 556H1240V571.5Z" stroke="black" stroke-width="5"/>
<path d="M1323 439H1301V465L1313.5 477.5H1333V487H1379V500.5L1390.5 512H1407.5V500.5L1358.5 451.5H1341.5L1333 460H1323V439Z" stroke="black" stroke-width="5"/>
</svg>
