<svg width="71" height="157" viewBox="0 0 71 157" fill="none" xmlns="http://www.w3.org/2000/svg">
<path d="M71 43.1181V49.5115H64.1925V54.2941H27.5925L19.6295 46.3148V34.5347L26.2863 27.8644V17.4436L31.7876 11.9311H34.9778V7.82821L42.7902 0H44.9756V17.4436H49.3967L52.9889 21.043V11.9311H55.2748L60.7761 17.4436V25.6745L67.1818 32.0931V39.2921L71 43.1181Z" fill="#FFC300"/>
<path d="M57.2168 50.6735L54.0201 53.8763H35.639L30.0698 48.2964V42.5914L34.6151 38.0374V31.6068L40.7338 25.4764H45.2541V29.8052H48.301L51.4727 32.983V38.0374L54.0201 40.5897V43.6674H57.2168V50.6735Z" fill="#E2AD01"/>
<path d="M47.073 42.4146L49.2817 44.6636V45.8512L47.9912 47.1652V50.5513L45.9562 52.6234H40.1985L37.5181 49.8943V47.5695L34.6641 44.6636L36.3269 42.9705V40.3172L39.0072 37.5881H42.6058V45.2448H44.4919V42.4146H47.073Z" fill="#FFD60A"/>
<path d="M19.6298 58.0527H68.9121V65.8812L61.4094 73.5057H27.2329L19.6298 65.7792V58.0527Z" fill="#FFC300"/>
<path d="M56.7998 75.594V119.989H55.3992L52.2227 123.171V130.211L48.9712 133.468V145.669L46.8452 147.799V156.617H43.2185V147.799L41.0925 145.669V133.468L37.841 130.211V123.171L34.6645 119.989V75.594H56.7998Z" fill="#FFD60A"/>
<path d="M49.6997 76.4293H32.3462H30.538L26.6454 80.3178V91.0047L24.6865 92.9614V97.1007L21.8989 99.8854H20.3167L16.9264 103.272H15.2689L10.9996 107.537H8.16171L4.97228 110.723H2.76228L-0.000228882 113.482V144.088L29.7595 114.36H35.4351V87.8438L39.152 84.1309H45.8824L49.6997 80.3178V76.4293Z" fill="#FFC300"/>
<path d="M47.6115 77.2646H64.3174V84.7637L62.2353 86.8705H50.9824L47.6115 83.9361V77.2646Z" fill="#FFC300"/>
<path d="M47.6115 88.541H64.3174V96.0401L62.2353 98.1468H50.9824L47.6115 95.2124V88.541Z" fill="#FFC300"/>
<path d="M47.6115 99.4H64.3174V104.393L62.2353 106.5H50.9824L47.6115 103.565V99.4Z" fill="#FFC300"/>
<path d="M47.6115 108.17H64.3174V112.27L62.2353 114.435H50.9824L47.6115 111.419V108.17Z" fill="#FFC300"/>
</svg>
