<svg width="26" height="26" viewBox="0 0 26 26" fill="none" xmlns="http://www.w3.org/2000/svg">
<path d="M12.8185 25.6371C19.9222 25.6371 25.6371 19.9222 25.6371 12.8185C25.6371 5.71489 19.9222 0 12.8185 0C5.71489 0 0 5.71489 0 12.8185C0 19.9222 5.71489 25.6371 12.8185 25.6371Z" fill="#2775CA"/>
<path d="M16.3435 14.8481C16.3435 12.9788 15.2219 12.3378 12.9786 12.0708C11.3763 11.8572 11.0559 11.4299 11.0559 10.6821C11.0559 9.93424 11.59 9.45368 12.6582 9.45368C13.6196 9.45368 14.1537 9.77414 14.4207 10.5753C14.4742 10.7355 14.6344 10.8423 14.7946 10.8423H15.6491C15.8628 10.8423 16.023 10.6821 16.023 10.4685V10.4151C15.8093 9.23999 14.848 8.33205 13.6196 8.22528V6.94342C13.6196 6.72974 13.4593 6.56951 13.1923 6.51605H12.3912C12.1775 6.51605 12.0172 6.67628 11.9638 6.94342V8.17182C10.3615 8.38551 9.34676 9.45368 9.34676 10.789C9.34676 12.5515 10.4149 13.2458 12.6582 13.5129C14.1537 13.7799 14.6344 14.1004 14.6344 14.955C14.6344 15.8096 13.8866 16.3971 12.8719 16.3971C11.4831 16.3971 11.0024 15.8095 10.8422 15.0083C10.7888 14.7948 10.6286 14.6879 10.4684 14.6879H9.56031C9.34676 14.6879 9.18652 14.8481 9.18652 15.0618V15.1152C9.40008 16.4504 10.2547 17.4118 12.0172 17.6789V18.9608C12.0172 19.1744 12.1775 19.3346 12.4445 19.388H13.2456C13.4593 19.388 13.6196 19.2278 13.673 18.9608V17.6789C15.2753 17.4118 16.3435 16.2902 16.3435 14.8481Z" fill="white"/>
<path d="M10.0947 20.4562C5.92873 18.9608 3.79226 14.3141 5.34125 10.2014C6.14241 7.95812 7.90496 6.24902 10.0947 5.44786C10.3084 5.34109 10.4152 5.18085 10.4152 4.91372V4.16601C10.4152 3.95233 10.3084 3.79209 10.0947 3.73877C10.0413 3.73877 9.93452 3.73877 9.88107 3.79209C4.80711 5.39441 2.02971 10.789 3.63203 15.8629C4.59342 18.8539 6.89012 21.1506 9.88107 22.112C10.0948 22.2187 10.3084 22.112 10.3618 21.8983C10.4152 21.8449 10.4152 21.7915 10.4152 21.6847V20.9369C10.4152 20.7766 10.255 20.5631 10.0947 20.4562ZM15.7563 3.79209C15.5426 3.68532 15.3289 3.79209 15.2756 4.00578C15.2222 4.05923 15.2222 4.11256 15.2222 4.21946V4.96717C15.2222 5.18085 15.3824 5.39441 15.5426 5.50132C19.7087 6.99673 21.8451 11.6434 20.2961 15.7561C19.495 17.9994 17.7324 19.7085 15.5426 20.5096C15.3289 20.6164 15.2222 20.7767 15.2222 21.0438V21.7915C15.2222 22.0052 15.3289 22.1654 15.5426 22.2187C15.5961 22.2187 15.7029 22.2187 15.7563 22.1654C20.8303 20.5631 23.6077 15.1685 22.0053 10.0946C21.044 7.05018 18.6938 4.75348 15.7563 3.79209Z" fill="white"/>
</svg>
