<svg width="64" height="64" viewBox="0 0 64 64" fill="none" xmlns="http://www.w3.org/2000/svg">
<path opacity="0.2" d="M52.3846 20.1003L43.9717 27.9998L51.9717 49.9998L45.9717 55.9998L34.0197 38.505L27.9717 43.9998V49.9998L21.9717 55.9998L18.4236 45.5362L7.97168 41.9998L13.9717 35.9998H19.9717L25.9717 29.9998L7.97168 17.9998L13.9717 11.9998L35.9717 19.9998L43.8993 11.615L43.729 11.7571C44.286 11.199 44.9475 10.7561 45.6757 10.4537C46.4039 10.1514 47.1846 9.99555 47.973 9.99512C48.7615 9.99469 49.5424 10.1497 50.2709 10.4512C50.9995 10.7528 51.6614 11.1949 52.219 11.7525C52.7765 12.31 53.2187 12.972 53.5203 13.7005C53.8218 14.4291 53.9768 15.2099 53.9763 15.9984C53.9759 16.7869 53.8201 17.5676 53.5177 18.2958C53.2154 19.024 52.7725 19.6855 52.2143 20.2424L52.3846 20.1003Z" fill="black"/>
<path d="M52.3846 20.1003L43.9717 27.9998L51.9717 49.9998L45.9717 55.9998L34.0197 38.505L27.9717 43.9998V49.9998L21.9717 55.9998L18.4236 45.5362L7.97168 41.9998L13.9717 35.9998H19.9717L25.9717 29.9998L7.97168 17.9998L13.9717 11.9998L35.9717 19.9998L43.8993 11.615L43.729 11.7571C44.286 11.199 44.9475 10.7561 45.6757 10.4537C46.4039 10.1514 47.1846 9.99555 47.973 9.99512C48.7615 9.99469 49.5424 10.1497 50.2709 10.4512C50.9995 10.7528 51.6614 11.1949 52.219 11.7525C52.7765 12.31 53.2187 12.972 53.5203 13.7005C53.8218 14.4291 53.9768 15.2099 53.9763 15.9984C53.9759 16.7869 53.8201 17.5676 53.5177 18.2958C53.2154 19.024 52.7725 19.6855 52.2143 20.2424L52.3846 20.1003Z" stroke="black" stroke-width="2" stroke-linecap="round" stroke-linejoin="round"/>
</svg>
