<svg width="480" height="305" viewBox="0 0 480 305" fill="none" xmlns="http://www.w3.org/2000/svg">
<g clip-path="url(#clip0_1715_10244)">
<path d="M230.362 139.099C230.78 135.592 235.597 130.261 241.122 127.193C246.647 124.124 250.788 124.48 250.37 127.986C249.953 131.493 245.136 136.824 239.61 139.892C234.085 142.961 229.945 142.606 230.362 139.099Z" fill="#987F00"/>
<path d="M229.558 137.632C229.976 134.125 234.793 128.794 240.318 125.726C245.843 122.658 249.983 123.013 249.566 126.52C249.148 130.027 244.331 135.357 238.806 138.426C233.281 141.494 229.14 141.139 229.558 137.632Z" fill="#D8B400"/>
<path d="M311.895 161.535L305.817 165.813C305.817 165.813 302.726 164.21 299.444 165.229C296.162 166.249 294.357 168.466 294.623 170.773C294.888 173.081 297.471 177.509 300.634 177.219C303.796 176.93 307.238 172.743 307.238 172.743L315.809 169.7L311.895 161.535Z" fill="#FAFCFF"/>
<path d="M250.682 73.2817C250.682 73.2817 256.623 53.2241 281.304 46.8478C305.985 40.4716 321.896 49.3811 331.875 57.7736C341.854 66.1662 359.218 88.0467 389.755 81.3526L416.997 137.103C416.997 137.103 396.139 150.89 376.183 146.894C356.224 142.898 347.579 136.696 331.93 129.114C316.281 121.532 291.866 122.456 280.769 131.263C280.769 131.263 277.136 114.549 269.615 100.053C262.093 85.558 250.682 73.2817 250.682 73.2817Z" fill="#FFD60A"/>
<path d="M323.376 132.021C323.376 132.021 334.606 124.235 339.166 130.363C343.726 136.491 351.547 154.503 343.35 157.621C335.153 160.739 332.319 160.491 332.319 160.491L317.819 135.514L323.376 132.021Z" fill="#CBB238"/>
<path opacity="0.4" d="M300.23 125.118C300.23 116.863 306.914 110.171 315.16 110.171C323.405 110.171 330.089 116.863 330.089 125.118C330.089 133.374 323.405 140.066 315.16 140.066C306.914 140.066 300.23 133.374 300.23 125.118Z" fill="#F7FBFF"/>
<path d="M315.399 127.004L322.027 135.722C322.027 135.722 319.896 138.924 316.734 138.702C313.572 138.48 310.378 133.67 310.378 133.67L307.587 131.354C307.587 131.354 308.341 127.275 315.399 127.004Z" fill="#AB8E00"/>
<path d="M314.572 132.921C314.572 132.921 320.815 132.803 319.755 127.306C318.696 121.81 311.948 114.47 304.93 119.843C297.91 125.216 305.224 129.514 307.423 131.335C309.621 133.157 310.358 133.647 310.358 133.647L314.572 132.921Z" fill="#5FB2FF"/>
<path d="M349.549 204.006L355.203 220.542L365.397 220.453L359.788 217.868C359.788 217.868 359.12 209.979 358.408 206.547C357.695 203.115 356.716 201.733 356.716 201.733L349.549 204.006Z" fill="#428ED3"/>
<path d="M307.356 207.732L301.791 221.237L290.573 221.46L298.408 217.181L299.877 210.228C299.877 210.228 305.175 205.147 307.356 207.732Z" fill="#428ED3"/>
<path d="M310.495 117.942C310.495 117.942 307.545 119.92 307.731 121.786C307.917 123.652 310.368 126.846 306.926 130.902C306.926 130.902 300.029 128.181 301.947 123.09C303.977 117.701 310.495 117.942 310.495 117.942Z" fill="#001A33"/>
<path d="M327.568 137.722C331.935 141.319 338.725 164.461 338.725 164.461C338.725 164.461 332.59 175.477 316.442 173.496C316.442 173.496 297.076 143.488 309.38 138.315C321.685 133.141 325.077 135.671 327.568 137.722Z" fill="#A4D3FF"/>
<path d="M336.986 162.944C336.986 162.944 352.3 180.838 358.488 206.936L341.839 207.673L329.686 183.382L313.926 209.857L299.77 210.08C299.77 210.08 306.536 183.471 316.508 173.353C326.48 163.236 336.986 162.944 336.986 162.944Z" fill="#A4D3FF"/>
<path d="M324.329 221.202L246.402 73.5185C246.402 73.5185 245.455 70.7716 249.747 71.3083L328.266 221.513L324.329 221.202Z" fill="#A7A7A7"/>
<path d="M309.887 161.225C313.273 160.971 318.344 160.074 322.541 157.179C322.541 157.179 320.92 149.322 320.28 148.211" stroke="#714F8F" stroke-width="0.00062925" stroke-linecap="round" stroke-linejoin="round"/>
<path d="M305.005 170.943C305.005 170.943 303.094 171.116 302.644 170.656" stroke="#714F8F" stroke-width="0.00062925" stroke-linecap="round" stroke-linejoin="round"/>
<path d="M333.454 148.796C337.073 147.548 341.555 145.505 344.948 142.341" stroke="#714F8F" stroke-width="0.00062925" stroke-linecap="round" stroke-linejoin="round"/>
<path d="M230.218 134.991L231.932 135.555L231.053 136.518L232.383 136.934L233.25 136.024L234.229 136.434L233.464 137.45L234.877 137.899L235.882 136.831C235.882 136.831 243.005 137.077 241.981 132.043C241.981 132.043 248.646 130.9 246.422 126.55L246.913 125.715L245.451 125.265L244.908 125.932L244.054 125.698L244.586 124.982L243.018 124.559L242.255 125.307L240.744 125.002L230.218 134.991Z" fill="#FFD60A"/>
<path d="M295.916 170.076C295.916 170.076 301.024 167.693 302.969 170.171C304.913 172.65 305.257 176.665 303.24 177.188C301.222 177.711 298.898 176.909 298.898 176.909C298.898 176.909 293.801 173.747 295.916 170.076Z" fill="#E3E3E3"/>
<path d="M305.611 146.554L291.709 138.887C291.709 138.887 289.856 132.682 281.105 132.126C281.105 132.126 281.838 134.25 282.659 134.736C283.48 135.222 284.87 136.079 284.87 136.079C284.87 136.079 280.976 137.144 279.887 136.816C278.798 136.488 277.218 134.951 275.387 135.984C273.557 137.018 276.403 142.878 280.723 144.076C285.043 145.273 287.223 144.21 287.223 144.21C287.223 144.21 300.351 155.632 307.62 155.608C314.464 155.587 332.433 146.721 328.262 138.992C324.036 131.161 305.611 146.554 305.611 146.554Z" fill="#FAFCFF"/>
<path d="M234.472 133.654L236.165 132.212C236.165 132.212 239.884 132.986 238.545 134.207C237.708 134.97 235.487 133.907 234.472 133.654Z" fill="#C9A803"/>
<path d="M239.416 128.798C239.416 128.798 242.411 129.974 243.284 128.944C244.156 127.913 241.1 127.264 241.1 127.264L239.416 128.798Z" fill="#C9A803"/>
<path d="M301.063 165.505C301.063 165.505 299.447 167.563 299.828 168.767C300.209 169.97 302.17 172.64 302.861 171.95C303.552 171.26 303.473 168.7 302.385 167.786L301.063 165.505Z" fill="#F7FBFF"/>
<path d="M255.28 142.514L260.606 150.706L266.291 143.025L255.28 142.514Z" fill="#FFD60A" fill-opacity="0.4"/>
<path d="M238.374 167.52L234.357 178.955L238.721 176.327L238.374 167.52Z" fill="#987F00"/>
<path d="M238.93 177.188L238.611 189.265L243.568 179.074L238.93 177.188Z" fill="#FFD60A"/>
<path opacity="0.4" d="M158.943 58.2213C158.943 51.9821 163.995 46.9238 170.227 46.9238C176.459 46.9238 181.511 51.9821 181.511 58.2213C181.511 64.4606 176.459 69.5185 170.227 69.5185C163.995 69.5185 158.943 64.4606 158.943 58.2213Z" fill="#F7FBFF"/>
<path d="M238.724 176.227L243.56 177.764L238.266 167.664L238.724 176.227Z" fill="#C9A803"/>
<path d="M238.911 177.332L234.472 180.876L238.633 189.154L238.911 177.332Z" fill="#D8B400"/>
<path d="M167.987 64.5659L165.617 68.2422L161.587 65.4767L164.112 61.9736C164.112 61.9736 166.857 62.2532 167.987 64.5659Z" fill="#5FB2FF"/>
<path d="M175.155 59.6884C175.155 59.6884 172.77 66.5299 169.214 66.6635C165.656 66.7967 163.426 62.4991 163.426 62.4991C163.426 62.4991 169.606 52.4834 175.155 59.6884Z" fill="#5FB2FF"/>
<path d="M177.867 86.752C177.765 87.0947 183.84 82.413 183.84 82.413C183.84 82.413 186.068 83.0187 188.327 81.007C190.585 78.9949 191.738 77.8832 191.451 76.5648C191.164 75.2468 184.601 76.7153 184.601 76.7153L180.723 76.7967L174.037 82.3268C174.037 82.3268 177.969 86.4096 177.867 86.752Z" fill="#D3EBFB"/>
<path d="M334.488 192.844C334.488 192.844 344.475 186.405 351.474 186.367" stroke="#714F8F" stroke-width="0.00062925" stroke-linecap="round" stroke-linejoin="round"/>
<path d="M323.871 192.331C323.871 192.331 313.96 189.263 305.978 191.574" stroke="#714F8F" stroke-width="0.00062925" stroke-linecap="round" stroke-linejoin="round"/>
<path d="M172.904 60.9666C172.904 60.9666 176.143 61.9992 177.635 61.0001C179.128 60.0006 178.643 58.403 177.615 57.8939C176.588 57.3845 176.223 58.5983 175.223 57.6782C174.223 56.7581 172.902 54.8592 170.74 55.1201C168.579 55.3813 166.911 57.7086 164.982 57.9188C163.054 58.1286 159.165 57.3655 159.543 60.8637C159.921 64.3623 163.127 64.235 163.903 63.7408C164.679 63.2462 166.353 61.2938 166.353 61.2938C166.353 61.2938 170.381 63.2738 172.904 60.9666Z" fill="#001A33"/>
<path d="M154.642 69.8193C154.642 69.8193 157.596 66.1109 156.885 63.3547C156.174 60.5988 151.041 58.0818 149.017 59.0937C146.994 60.1056 137.809 70.308 139.197 77.6475C139.968 81.728 148.572 82.3047 148.572 82.3047L154.642 69.8193Z" fill="#CBB238"/>
<path d="M135.031 114.423C135.031 98.9637 147.548 86.4316 162.988 86.4316C178.428 86.4316 190.945 98.9637 190.945 114.423C190.945 129.882 178.428 142.414 162.988 142.414C147.548 142.414 135.031 129.882 135.031 114.423Z" fill="#0056A6"/>
<path d="M187.194 100.938L189.781 107.282L195.55 111.188L187.443 110.343L183.085 104.678C183.085 104.678 183.569 99.8995 187.194 100.938Z" fill="#1F79CC"/>
<path d="M182.417 104.165L183.274 111.935L188.033 115.675L179.055 113.971L176.302 106.589C176.302 106.589 179.498 102.891 182.417 104.165Z" fill="#428ED3"/>
<path d="M184.771 106.979L190.653 99.6617C190.653 99.6617 185.199 87.9753 176.102 83.9645C167.006 79.9534 173.168 92.0858 173.168 92.0858L184.771 106.979Z" fill="#70BAFF"/>
<path d="M186.122 92.5034C186.122 92.5034 184.648 92.8772 182.28 96.2802" stroke="#714F8F" stroke-width="0.00062925" stroke-linecap="round" stroke-linejoin="round"/>
<path d="M191.34 74.964L186.033 86.0313C186.033 86.0313 185.598 87.1177 184.296 86.032C182.994 84.9462 181.559 83.3627 181.559 83.3627C181.559 83.3627 180.99 83.0466 181.384 82.0813C181.778 81.1159 186.258 72.418 186.535 71.8523C186.812 71.287 187.123 70.9425 188.018 71.4747C188.993 72.0552 191.149 73.7125 191.149 73.7125C191.149 73.7125 191.652 74.0691 191.34 74.964Z" fill="#1064B3"/>
<path d="M182.962 78.2147C182.962 78.2147 185.376 77.5569 185.926 75.454C186.476 73.3508 185.831 72.8624 185.304 72.9822C184.778 73.1019 184.831 73.8899 184.39 74.2667C183.949 74.6436 182.079 74.6329 181.471 76.1197C180.863 77.6066 182.962 78.2147 182.962 78.2147Z" fill="#D3EBFB"/>
<path d="M163.04 67.24C163.04 67.24 172.7 71.0488 169.806 76.4733C166.912 81.8977 163.952 82.3819 163.952 82.3819C163.952 82.3819 172.482 81.0732 178.791 85.7121C185.1 90.351 185.264 104.815 185.264 104.815L176.644 107.517L172.505 97.1107C172.505 97.1107 163.438 103.719 155.994 98.9212C148.551 94.1239 145.122 85.0808 151.001 73.1572C155.686 63.6541 163.04 67.24 163.04 67.24Z" fill="#A4D3FF"/>
<path d="M165.773 70.242C165.773 70.242 166.755 69.4099 166.816 68.6809C166.877 67.9524 161.529 63.7828 160.668 64.2212C159.807 64.6595 159.995 66.5425 159.995 66.5425L165.773 70.242Z" fill="#E6E3E3"/>
<path d="M168.437 80.1794L173.479 78.3947C173.479 78.3947 175.207 74.843 176.384 73.946C177.562 73.049 182.357 72.7087 182.672 73.3506C182.987 73.9922 180.931 75.3979 180.931 75.3979C180.931 75.3979 182.844 76.5562 180.913 79.5933C178.981 82.6301 177.321 82.0576 177.321 82.0576C177.321 82.0576 169.127 91.451 163.157 89.3091C157.99 87.4547 156.435 76.2404 156.209 74.2849C155.984 72.3294 155.522 65.735 159.568 65.9489C166.333 66.3072 167.875 74.337 168.437 80.1794Z" fill="#FAFDFF"/>
<path d="M167.868 76.4185C165.725 76.4913 161.033 77.1736 157.793 81.4708" stroke="#714F8F" stroke-width="0.00062925" stroke-linecap="round" stroke-linejoin="round"/>
<path d="M158.684 70.7378C158.264 68.6949 159.412 66.7322 161.247 66.3532C163.083 65.9746 164.912 67.3234 165.332 69.3662C165.753 71.409 164.605 73.3721 162.769 73.7507C160.934 74.1294 159.105 72.7806 158.684 70.7378Z" fill="white"/>
<path d="M173.543 99.6706C173.543 99.6706 177.026 94.0944 183.378 93.4531" stroke="#714F8F" stroke-width="0.00062925" stroke-linecap="round" stroke-linejoin="round"/>
<path d="M180.848 75.3703C180.848 75.3703 179.474 74.7 178.831 74.6631" stroke="#714F8F" stroke-width="0.00062925" stroke-linecap="round" stroke-linejoin="round"/>
<path d="M195.316 67.5869C194.731 66.5087 195.795 64.8656 197.692 63.9165C199.59 62.9677 201.603 63.0723 202.188 64.1505C202.773 65.2287 201.709 66.8722 199.812 67.8209C197.914 68.7697 195.901 68.6651 195.316 67.5869Z" fill="#987F00"/>
<path d="M217.003 63.7327C218.453 62.7101 221.091 63.8325 222.895 66.2394C224.699 68.6467 224.986 71.4267 223.536 72.4493C222.086 73.472 219.448 72.3499 217.644 69.9427C215.839 67.5357 215.553 64.7553 217.003 63.7327Z" fill="#987F00"/>
<path d="M232.818 74.5927C235.15 73.8545 238.308 76.3045 239.872 80.0651C241.435 83.8256 240.811 87.4726 238.479 88.2108C236.146 88.9487 232.988 86.4987 231.425 82.7381C229.862 78.9776 230.485 75.3309 232.818 74.5927Z" fill="#987F00"/>
<path d="M239.086 107.361C241.245 105.879 246.997 106.33 251.934 108.369C256.872 110.407 259.124 113.261 256.965 114.743C254.806 116.225 249.054 115.774 244.117 113.736C239.179 111.697 236.927 108.843 239.086 107.361Z" fill="#987F00"/>
<path d="M194.971 66.8675C194.386 65.7894 195.45 64.1462 197.347 63.1971C199.245 62.2483 201.257 62.3532 201.843 63.4314C202.428 64.5096 201.364 66.1528 199.467 67.1015C197.569 68.0507 195.557 67.9457 194.971 66.8675Z" fill="#C9A803"/>
<path d="M217.578 63.2147C219.028 62.192 221.666 63.3144 223.47 65.7213C225.274 68.1283 225.562 70.9087 224.111 71.9313C222.661 72.9539 220.023 71.8319 218.219 69.4246C216.415 67.0177 216.128 64.2373 217.578 63.2147Z" fill="#C9A803"/>
<path d="M233.622 74.2187C235.955 73.4804 239.113 75.9305 240.676 79.6911C242.24 83.4516 241.616 87.0986 239.283 87.8368C236.951 88.5747 233.793 86.1246 232.229 82.3641C230.666 78.6035 231.29 74.9569 233.622 74.2187Z" fill="#C9A803"/>
<path d="M450.957 250.877C450.957 250.877 462.471 247.671 462.908 239.201C463.343 230.732 454.877 211.372 448.813 208.825C442.75 206.279 422.277 215.256 422.908 220.449C423.535 225.642 435.769 260.91 450.957 250.877Z" fill="#CBB238"/>
<path d="M239.431 106.238C241.589 104.756 247.342 105.207 252.279 107.246C257.216 109.285 259.469 112.138 257.31 113.621C255.151 115.103 249.399 114.652 244.462 112.613C239.524 110.575 237.272 107.72 239.431 106.238Z" fill="#C9A803"/>
<path d="M190.513 119.85C198.966 128.297 203.177 135.565 200.704 138.8C196.7 144.035 176.697 136.717 156.026 122.453C135.355 108.189 121.844 92.3812 125.847 87.1456C128.312 83.9221 136.841 85.4572 147.857 90.4423" stroke="#F9D10B" stroke-linecap="round" stroke-linejoin="round"/>
<path d="M45 186L45.0903 196.636L55.0357 192.744L45 186Z" fill="#FFD60A" fill-opacity="0.4"/>
<path d="M83.1167 88.3145L73.9489 93.7079L82.2903 100.377L83.1167 88.3145Z" fill="#FFD60A" fill-opacity="0.4"/>
<path d="M107.387 163.458L108.998 173.972L118.284 168.697L107.387 163.458Z" fill="#FFD60A" fill-opacity="0.4"/>
<path d="M433 94.4351L434.61 104.949L443.897 99.6745L433 94.4351Z" fill="#FFD60A" fill-opacity="0.4"/>
<path d="M356 48.4351L357.61 58.9491L366.897 53.6745L356 48.4351Z" fill="#FFD60A" fill-opacity="0.4"/>
<path d="M409.84 240.809C409.84 240.809 386.241 233.938 374.572 195.722C374.572 195.722 368.185 197.096 365.758 184.357L374.627 187.159L375.258 182.137C375.258 182.137 377.054 183.512 377.899 185.837C378.743 188.163 380.329 191.282 380.329 191.282C380.329 191.282 398.699 214.275 412.425 219.244C412.425 219.244 420.081 232.141 409.84 240.809Z" fill="#FAFDFF"/>
<path d="M386.565 221.317C386.565 221.317 388.158 214.707 397.724 209.876" stroke="#714F8F" stroke-width="0.00062925" stroke-linecap="round" stroke-linejoin="round"/>
<path opacity="0.4" d="M392.889 201.105C392.889 188.404 403.172 178.108 415.857 178.108C428.543 178.108 438.825 188.404 438.825 201.105C438.825 213.806 428.543 224.102 415.857 224.102C403.172 224.102 392.889 213.806 392.889 201.105Z" fill="#F7FBFF"/>
<path d="M186.188 154.427L187.082 164.227L196.264 159.423L186.188 154.427Z" fill="#FFD60A" fill-opacity="0.4"/>
<path d="M427.909 215.172C427.909 215.172 444.321 217.084 450.198 227.58C456.076 238.077 463.301 264.041 456.52 273.042C449.74 282.042 445.01 281.16 445.438 282.95C445.869 284.74 420.153 264.419 420.153 264.419C420.153 264.419 412.997 253.985 409.453 241.082C405.909 228.179 405.937 215.068 427.909 215.172Z" fill="#A4D3FF"/>
<path d="M236.63 228.623C236.63 228.623 256.451 226.066 259.227 231.347C262.003 236.628 260.892 247.022 260.892 247.022L231.023 250.413L236.63 228.623Z" fill="#CBB238"/>
<path d="M369.781 190.33L425.787 193.873L433.857 151.122L371.101 150.744L369.781 190.33Z" fill="#6D5B00"/>
<path d="M399.312 183.949C399.312 183.949 377.808 172.653 388.977 160.849C394.924 154.566 400.725 163.967 400.725 163.967C400.725 163.967 407.082 156.358 413.466 160.376C421.346 165.337 412.994 179.934 399.312 183.949Z" fill="#FFD60A"/>
<path d="M432.28 218.327L430.87 169.19C430.87 169.19 427.082 164.242 428.499 159.013L431.729 163.352L433.166 154.168C433.166 154.168 435.697 157.852 436.7 162.351C436.7 162.351 454.049 191.601 450.306 227.513C450.306 227.513 441.226 232.412 432.28 218.327Z" fill="#FAFDFF"/>
<path d="M425.652 226.614C425.652 223.393 427.741 220.782 430.32 220.782C432.902 220.782 434.991 223.393 434.991 226.614C434.991 229.836 432.902 232.447 430.32 232.447C427.741 232.447 425.652 229.836 425.652 226.614Z" fill="#ECEAEA"/>
<path d="M413.467 221.106C413.453 220.52 413.943 219.583 418.248 217.905C423.56 215.836 426.049 215.82 426.518 216.708C426.987 217.596 422.375 220.116 418.586 221.145C415.253 222.049 413.484 221.692 413.467 221.106Z" fill="#7A7A7A"/>
<path d="M423.791 218.907L422.615 215.538C422.615 215.538 427.917 207.408 425.997 202.779C424.08 198.149 416.786 199.947 416.786 199.947C416.786 199.947 407.358 213.315 415.211 217.17L415.362 221.701C415.362 221.701 420.623 221.324 423.791 218.907Z" fill="#5FB2FF"/>
<path d="M415.19 217.128C415.19 217.128 417.224 218.043 419.03 215.948" stroke="#714F8F" stroke-width="0.00062925" stroke-linecap="round" stroke-linejoin="round"/>
<path d="M429.446 260.341L435.765 255.283" stroke="#714F8F" stroke-width="0.00062925" stroke-linecap="round" stroke-linejoin="round"/>
<path d="M431.976 200.43C431.976 200.43 440.245 194.24 449.087 198.595" stroke="#714F8F" stroke-width="0.00062925" stroke-linecap="round" stroke-linejoin="round"/>
<path d="M458.618 251.481C458.618 251.481 435.26 242.349 417.146 259.825" stroke="#9BBEDE" stroke-linecap="round" stroke-linejoin="round"/>
<path opacity="0.4" d="M210.675 221.881C210.675 209.101 221.023 198.74 233.788 198.74C246.553 198.74 256.901 209.101 256.901 221.881C256.901 234.661 246.553 245.021 233.788 245.021C221.023 245.021 210.675 234.661 210.675 221.881Z" fill="#F7FBFF"/>
<path d="M239.337 241.267C239.337 241.267 246.572 224.404 245.246 219.695C243.919 214.986 237.608 212.491 232.463 215.952C227.318 219.413 218.555 235.834 230.333 236.84L228.484 241.951C228.484 241.951 234.754 244.044 239.337 241.267Z" fill="#5FB2FF"/>
<path d="M226.77 241.011C226.77 241.011 227.505 241.718 228.542 242.003" stroke="#714F8F" stroke-width="0.00062925" stroke-linecap="round" stroke-linejoin="round"/>
<path d="M243.144 230.304C243.144 230.304 239.295 230.602 237.892 225.619C236.489 220.636 238.745 220.831 238.748 217.657C238.75 214.483 235.967 214.49 235.967 214.49C235.967 214.49 248.057 212.779 247.381 222.043C246.706 231.307 243.144 230.304 243.144 230.304Z" fill="#001A33"/>
<path d="M245.698 222.553C245.698 222.553 246.599 224.704 248.426 224.859C250.254 225.013 253.291 223.785 253.814 220.77C254.337 217.755 254.506 214.981 251.579 214.493C248.653 214.006 246.822 214.94 245.866 216.805C244.911 218.671 245.698 222.553 245.698 222.553Z" fill="#001A33"/>
<path d="M231.015 241.154C231.015 241.154 229.084 238.584 224.784 238.562C220.483 238.54 204.269 246.36 204.269 246.36L207.758 236.761C207.758 236.761 210.653 229.854 210.937 226.671C211.221 223.488 211.556 220.845 211.067 219.344C210.577 217.843 209.281 216.406 207.806 217.335C206.332 218.263 206.802 219.303 205.283 221.208C203.764 223.112 185.531 248.505 190.831 256.979C196.13 265.453 210.962 257.375 210.962 257.375L227.455 251.634C227.455 251.634 233.586 249.207 231.015 241.154Z" fill="#FAFDFF"/>
<path d="M204.007 259.888C204.007 259.888 209.861 252.048 207.053 245.355" stroke="#714F8F" stroke-width="0.00062925" stroke-linecap="round" stroke-linejoin="round"/>
<path d="M204.356 246.392L200.903 248.216" stroke="#714F8F" stroke-width="0.00062925" stroke-linecap="round" stroke-linejoin="round"/>
<path d="M206.195 220.408L217.967 222.014C217.967 222.014 222.916 225.701 216.725 233.981L203.778 233.144L206.195 220.408Z" fill="#CBB238"/>
<path opacity="0.4" d="M52.8228 260.262C52.8228 249.844 61.2583 241.398 71.6642 241.398C82.0701 241.398 90.506 249.844 90.506 260.262C90.506 270.681 82.0701 279.127 71.6642 279.127C61.2583 279.127 52.8228 270.681 52.8228 260.262Z" fill="#F7FBFF"/>
<path d="M231.483 253.893C231.483 251.053 233.037 248.751 234.953 248.751C236.869 248.751 238.423 251.053 238.423 253.893C238.423 256.732 236.869 259.035 234.953 259.035C233.037 259.035 231.483 256.732 231.483 253.893Z" stroke="#714F8F" stroke-width="0.00062925" stroke-linecap="round" stroke-linejoin="round"/>
<path d="M80.0781 306.162C80.9764 306.162 86.9648 306.403 88.1023 304.605C89.2402 302.804 91.4561 280.082 91.4561 280.082L81.096 273.367C81.096 273.367 79.1797 306.162 80.0781 306.162Z" fill="#CBB238"/>
<path d="M53.8183 292.416L47.1667 296.617L40.292 298.719C40.292 298.719 42.1669 304.572 44.1758 305.331C44.1758 305.331 47.4792 303.768 48.2381 300.997L53.5504 300.686C53.5504 300.686 55.4698 299.254 53.8183 292.416Z" fill="#F4F4F4"/>
<path d="M205.854 236.074C205.854 236.074 210.007 237.618 212.024 235.718C214.041 233.817 213.488 233.5 214.358 232.708C215.228 231.916 216.652 230.965 216.652 230.965C216.652 230.965 213.923 228.748 209.533 232.827C209.533 232.827 205.657 231.441 205.854 236.074Z" fill="#F4F4F4"/>
<path d="M209.146 265.209C209.146 265.209 207.481 260.595 211.867 253.146C216.253 245.698 224.192 240.862 224.192 240.862L245.623 239.083L254.284 266.821L209.146 265.209Z" fill="#A4D3FF"/>
<path d="M259.087 248.527C259.087 248.527 252.258 231.962 242.653 235.686C233.048 239.41 235.269 249.138 235.269 249.138L242.986 264.536C242.986 264.536 260.197 259.255 259.087 248.527Z" fill="#FAFDFF"/>
<path d="M243.324 249.758C243.324 249.758 248.932 253.371 250.153 259.875" stroke="#714F8F" stroke-width="0.00062925" stroke-linecap="round" stroke-linejoin="round"/>
<path d="M84.6695 308.401C84.6695 308.401 79.9824 295.395 84.6695 277.026C84.6695 277.026 82.7053 272.511 74.3573 270.5C66.0097 268.489 60.6973 271.439 57.8403 275.864C54.9833 280.288 50.0284 286.57 51.1442 307.687L84.6695 308.401Z" fill="#A4D3FF"/>
<path d="M202.294 226.106C203.088 222.645 204.956 220.121 206.466 220.468C207.975 220.816 208.555 223.903 207.761 227.364C206.967 230.824 205.099 233.348 203.589 233.001C202.079 232.654 201.5 229.567 202.294 226.106Z" fill="#A78D11"/>
<path d="M115.487 306.852L124.5 286.639H173.813L194 258.512L245.253 259.169L270 219.832H385.017L409.182 258.512H450L480 306.286C480 306.286 122.561 303.932 115.487 306.852Z" fill="white"/>
<path d="M230.448 236.838C230.448 236.838 231.715 236.838 232.856 236.838" stroke="#714F8F" stroke-width="0.00062925" stroke-linecap="round" stroke-linejoin="round"/>
<path d="M67.4055 271.363C67.4055 271.363 64.7536 271.706 63.898 268.708C63.0428 265.711 65.8229 254.148 70.2287 252.906C74.6341 251.664 82.4616 254.49 80.708 260.957C78.9541 267.423 75.1474 275.175 75.1474 275.175C75.1474 275.175 70.8702 277.359 65.7374 274.789L67.4055 271.363Z" fill="#5FB2FF"/>
<path d="M79.0822 266.029C79.0822 266.029 75.9115 266.184 74.243 262.587C72.575 258.99 75.0131 257.362 73.8156 255.264C72.6177 253.165 70.2464 253.847 68.6211 254.104C66.9954 254.361 72.7146 248.468 79.9636 254.445C86.2253 259.608 79.0822 266.029 79.0822 266.029Z" fill="#001A33"/>
<path d="M81.0692 266.146L96.3072 260.699L93.179 251.167L78.3366 256.758C78.3366 256.758 75.3307 262.412 81.0692 266.146Z" fill="#CBB238"/>
<path d="M51.3281 298.263C51.3281 298.263 60.6699 291.608 82.5276 299.043" stroke="#714F8F" stroke-width="0.00062925" stroke-linecap="round" stroke-linejoin="round"/>
<path d="M92.3367 256.498C91.6038 253.867 92.1071 251.428 93.4608 251.05C94.8148 250.672 96.5067 252.498 97.2396 255.129C97.9728 257.761 97.4695 260.2 96.1154 260.578C94.7618 260.956 93.0699 259.13 92.3367 256.498Z" fill="#A78D11"/>
<path d="M95.5 255.5C95.5 255.5 132.73 239.74 131.222 221.418C129.714 203.097 89.0932 224.035 112.721 236.82C136.35 249.605 159.174 226.25 171.44 221.016C183.707 215.781 204.42 225.747 204.42 225.747" stroke="#FFD60A" stroke-linecap="round" stroke-linejoin="round" stroke-dasharray="5 5"/>
<path d="M90.1144 275.089C90.1144 275.089 83.4418 266.696 77.9243 269.308C72.4064 271.92 73.7873 275.396 75.5895 276.84C77.3917 278.283 82.4373 280.208 82.4373 280.208C82.4373 280.208 91.8256 287.037 96.6588 283.74C101.492 280.442 93.5364 261 93.5364 261L88.1468 263.826L90.1144 275.089Z" fill="#FFFCEB"/>
<path d="M91.4625 266.279C91.4625 266.279 87.0139 265.551 85.8164 263.838C85.8164 263.838 86.2015 262.639 87.5272 262.938C88.8534 263.238 90.0081 262.853 90.0081 262.853C90.0081 262.853 92.3605 262.382 91.4625 266.279Z" fill="#F4F4F4"/>
<path d="M67.9976 285.857C67.9976 283.043 69.8663 280.762 72.1714 280.762C74.4765 280.762 76.3455 283.043 76.3455 285.857C76.3455 288.671 74.4765 290.952 72.1714 290.952C69.8663 290.952 67.9976 288.671 67.9976 285.857Z" fill="white"/>
<path d="M59.8354 300.991L64.3523 303.51C64.3523 303.51 65.4484 306.613 65.5429 306.875" stroke="#714F8F" stroke-width="0.00062925" stroke-linecap="round" stroke-linejoin="round"/>
<path d="M280.134 222.208C280.134 222.208 278.382 217.8 273.979 219.759C269.576 221.718 269.291 223.554 271.329 224.126C273.367 224.697 276.425 223.146 276.425 223.146L280.134 222.208Z" fill="#F4F4F4"/>
<path d="M45.1331 298.822C45.1331 298.822 46.078 300.997 43.9236 302.419C43.9236 302.419 42.8274 299.067 41.9014 297.991C41.9014 297.991 43.2054 295.435 47.1742 296.608L47.2875 299.713C47.2875 299.713 47.0986 300.562 45.1331 298.822Z" fill="#F4F4F4"/>
<path d="M41.1542 305.337C41.1542 305.337 43.9513 305.034 44.2537 302.311C44.556 299.584 42.5527 297.71 42.5527 297.71C42.5527 297.71 40.3794 297.824 39.7746 298.997C39.1699 300.171 39.4722 303.86 41.1542 305.337Z" fill="#F4F4F4"/>
<path d="M202.855 280.317C202.779 280.488 202.703 280.658 202.628 280.829" stroke="#714F8F" stroke-width="0.00062925" stroke-linecap="round" stroke-linejoin="round"/>
<path d="M44.8673 286.893C44.8673 286.893 49.0053 292.595 43.6161 298.64C39.2959 303.485 33.7719 300.46 33.0636 299.656C32.3554 298.852 44.8673 286.893 44.8673 286.893Z" fill="#878787"/>
<path d="M35.0179 290.21C38.1261 286.567 42.3203 284.986 44.3859 286.679C46.4516 288.372 45.6064 292.697 42.4983 296.34C39.3901 299.982 35.1959 301.563 33.1302 299.87C31.0646 298.178 31.9097 293.853 35.0179 290.21Z" fill="#C4C4C4"/>
<path d="M36.045 290.489L45.3351 291.657C45.3351 291.657 43.4122 297.109 38.7852 299.354L35.2188 291.482L36.045 290.489Z" fill="#DFDFDF"/>
<path d="M34.1846 290.887C34.1846 290.143 34.7606 289.54 35.4711 289.54C36.1817 289.54 36.7578 290.143 36.7578 290.887C36.7578 291.631 36.1817 292.234 35.4711 292.234C34.7606 292.234 34.1846 291.631 34.1846 290.887Z" fill="#4F4F4F"/>
</g>
<defs>
<clipPath id="clip0_1715_10244">
<rect width="480" height="305" fill="white"/>
</clipPath>
</defs>
</svg>
