<svg width="398" height="175" viewBox="0 0 398 175" fill="none" xmlns="http://www.w3.org/2000/svg">
<path d="M0 0H398V175H0V0Z" fill="#E2E8F0"/>
<path d="M230.148 74.7569C229.879 74.1249 229.587 73.497 229.273 72.8744C221.27 57.0207 201.599 50.4931 185.336 58.2945C169.073 66.0958 162.377 85.272 170.38 101.126C174.387 109.064 181.319 114.664 189.285 117.298L188.558 69.1508C188.537 67.7572 189.678 66.6117 191.107 66.5922C192.536 66.5727 193.711 67.6866 193.732 69.0801L193.759 70.868C196.678 70.2019 200.932 71.1889 206.443 77.4792C212.675 84.5916 221.766 79.4671 228.139 75.875C228.845 75.4773 229.517 75.0984 230.148 74.7569Z" fill="#718096"/>
<path d="M231 97.0026C225.986 99.9442 217.565 104.383 210.89 102.233C208.095 101.333 205.953 99.9822 203.968 98.7303C200.917 96.8067 198.237 95.1169 194.133 95.6565L194.479 118.568C201.008 119.624 207.926 118.771 214.317 115.706C222.555 111.753 228.339 104.882 231 97.0026Z" fill="#718096"/>
</svg>
