<svg width="64" height="64" viewBox="0 0 64 64" fill="none" xmlns="http://www.w3.org/2000/svg">
<path opacity="0.2" d="M32 56C45.2548 56 56 45.2548 56 32C56 18.7452 45.2548 8 32 8C18.7452 8 8 18.7452 8 32C8 45.2548 18.7452 56 32 56Z" fill="black"/>
<path d="M32 56C45.2548 56 56 45.2548 56 32C56 18.7452 45.2548 8 32 8C18.7452 8 8 18.7452 8 32C8 45.2548 18.7452 56 32 56Z" stroke="black" stroke-width="2" stroke-linecap="round" stroke-linejoin="round"/>
<path d="M17.7559 51.3178C21.3159 45.4201 26.3394 40.5424 32.3394 37.1577C38.3395 33.773 45.1123 31.9962 52.0012 31.9995C53.3503 31.9995 54.6829 32.0653 55.9988 32.1968" stroke="black" stroke-width="2" stroke-linecap="round" stroke-linejoin="round"/>
<path d="M47.0076 13.2729C43.26 17.8791 38.5321 21.5913 33.1683 24.1389C27.8044 26.6866 21.9398 28.0055 16.0017 27.9998C13.4724 28.0009 10.9486 27.7635 8.46387 27.2906" stroke="black" stroke-width="2" stroke-linecap="round" stroke-linejoin="round"/>
<path d="M21.4824 10.4214C27.4972 13.9506 32.4842 18.9916 35.9485 25.0439C39.4127 31.0963 41.2337 37.9495 41.2306 44.9232C41.2329 48.1907 40.8357 51.4463 40.0478 54.6174" stroke="black" stroke-width="2" stroke-linecap="round" stroke-linejoin="round"/>
</svg>
