<svg width="102" height="77" viewBox="0 0 102 77" fill="none" xmlns="http://www.w3.org/2000/svg">
<path d="M58.7231 75.0456L99.8497 33.5255L101.385 34.9415L60.192 76.5285L58.7231 75.0456Z" fill="#FFC300"/>
<path d="M83.6175 48.225L98.996 32.8563L96.125 29.9872H94.4225L90.4499 26.0171H81.9818L78.7881 29.2087H75.7391L71.633 33.3122H67.883L63.8993 37.2934H60.7947L58.3577 34.858H55.331L54.4519 33.9795H51.9927L50.3458 32.3336H45.8947L43.5467 29.9872L42 31.5329V36.3926L45.8947 40.2848H48.9993L50.3458 41.6304V43.7322L51.2805 44.6664H53.1833L56.7442 48.225H59.1032L60.7947 49.9153H66.4475L69.3518 47.0128H72.935L74.4372 48.5141H77.4305L79.1665 50.2489L82.4046 47.0128L83.6175 48.225Z" fill="#FFD60A"/>
<path d="M19.4453 75.691L42.6733 52.2407L43.5403 53.0404L20.2749 76.5285L19.4453 75.691Z" fill="#FFC300"/>
<path d="M33.5053 60.5429L42.1909 51.8627L40.5694 50.2423H39.6079L37.3642 48H32.5814L30.7777 49.8026H29.0556L26.7365 52.1202H24.6185L22.3686 54.3688H20.6151L19.2387 52.9933H17.5292L17.0327 52.4971H15.6438L14.7136 51.5675H12.1997L10.8736 50.2423L10 51.1153V53.86L12.1997 56.0583H13.9532L14.7136 56.8183V58.0054L15.2416 58.533H16.3163L18.3274 60.5429H19.6598L20.6151 61.4975H23.8078L25.4481 59.8582H27.4718L28.3203 60.7062H30.0109L30.9914 61.686L32.8202 59.8582L33.5053 60.5429Z" fill="#FFD60A"/>
<path d="M25.3374 74.282L87.6473 11.3759L89.973 13.5212L27.5628 76.5286L25.3374 74.282Z" fill="#FFC300"/>
<path d="M63.0537 33.6466L86.3532 10.3619L82.0035 6.01494H79.4241L73.4053 0H60.5754L55.7368 4.83554H51.1173L44.8963 11.0527H39.2147L33.1791 17.0845H28.4753L24.7831 13.3946H20.1974L18.8655 12.0636H15.1396L12.6445 9.56999H5.90075L2.34344 6.01494L0 8.35689V15.7197L5.90075 21.6167H10.6045L12.6445 23.6554V26.8398L14.0606 28.2551H16.9436L22.3385 33.6466H25.9127L28.4753 36.2076H37.0398L41.4401 31.8101H46.8688L49.1448 34.0847H53.6799L56.31 36.713L61.216 31.8101L63.0537 33.6466Z" fill="#FFD60A"/>
</svg>
