<svg width="24" height="27" viewBox="0 0 24 27" fill="none" xmlns="http://www.w3.org/2000/svg">
<g opacity="0.2">
<path d="M9.97812 3.99992C9.39069 3.0798 8.58081 2.32259 7.62333 1.79825C6.66585 1.27392 5.59165 0.99938 4.5 1C4.0142 1.83958 3.72284 2.7774 3.64738 3.74446C3.57192 4.71151 3.71426 5.68318 4.06395 6.58795C3.37974 7.59509 3.00949 8.78247 3 10V11C3 12.5913 3.63214 14.1174 4.75736 15.2426C5.88258 16.3679 7.4087 17 9 17H15C16.5913 17 18.1174 16.3679 19.2426 15.2426C20.3679 14.1174 21 12.5913 21 11V10C20.9905 8.78247 20.6203 7.59509 19.9361 6.58795C20.2857 5.68318 20.4281 4.71151 20.3526 3.74446C20.2772 2.7774 19.9858 1.83958 19.5 1C18.4083 0.999379 17.3341 1.27393 16.3766 1.79827C15.4191 2.32262 14.6093 3.07984 14.0218 3.99998L9.97812 3.99992Z" fill="black"/>
<path d="M9.92545 4.03355L9.94387 4.06242L9.97812 4.06242L14.0218 4.06248L14.0561 4.06248L14.0745 4.03361C14.6563 3.12233 15.4584 2.37239 16.4067 1.85309C17.3444 1.33957 18.3952 1.06797 19.4639 1.06258C19.9342 1.88605 20.2165 2.80357 20.2903 3.74932C20.365 4.70706 20.2241 5.66937 19.8778 6.56542L19.8659 6.59598L19.8844 6.62307C20.5616 7.61992 20.9281 8.79516 20.9375 10.0002C20.9375 10.0003 20.9375 10.0004 20.9375 10.0005L20.9375 11C20.9375 12.5747 20.3119 14.085 19.1984 15.1984C18.0849 16.3119 16.5747 16.9375 15 16.9375H9C7.42528 16.9375 5.91505 16.3119 4.80155 15.1984C3.68806 14.085 3.0625 12.5747 3.0625 11V10.0002C3.07194 8.79516 3.43843 7.61992 4.11565 6.62307L4.13406 6.59598L4.12225 6.56542C3.77593 5.66936 3.63495 4.70706 3.70969 3.74932C3.78349 2.80357 4.06578 1.88605 4.53611 1.06258C5.60484 1.06797 6.65559 1.33956 7.59331 1.85307C8.54158 2.37236 9.34366 3.12229 9.92545 4.03355Z" stroke="black" stroke-opacity="0.48" stroke-width="0.125"/>
</g>
<path d="M6.5 26C7.29565 26 8.05871 25.6839 8.62132 25.1213C9.18393 24.5587 9.5 23.7956 9.5 23V17" stroke="black" stroke-opacity="0.48" stroke-width="2" stroke-linecap="round" stroke-linejoin="round"/>
<path d="M17.5 26C16.7044 26 15.9413 25.6839 15.3787 25.1213C14.8161 24.5587 14.5 23.7956 14.5 23V17" stroke="black" stroke-opacity="0.48" stroke-width="2" stroke-linecap="round" stroke-linejoin="round"/>
<path d="M15 17H17C17.7956 17 18.5587 17.3161 19.1213 17.8787C19.6839 18.4413 20 19.2044 20 20V21C20 21.7956 20.3161 22.5587 20.8787 23.1213C21.4413 23.6839 22.2044 24 23 24" stroke="black" stroke-opacity="0.48" stroke-width="2" stroke-linecap="round" stroke-linejoin="round"/>
<path d="M9 17H7C6.20435 17 5.44129 17.3161 4.87868 17.8787C4.31607 18.4413 4 19.2044 4 20V21C4 21.7956 3.68393 22.5587 3.12132 23.1213C2.55871 23.6839 1.79565 24 1 24" stroke="black" stroke-opacity="0.48" stroke-width="2" stroke-linecap="round" stroke-linejoin="round"/>
<path d="M9.97812 3.99992C9.39069 3.0798 8.58081 2.32259 7.62333 1.79825C6.66585 1.27392 5.59165 0.99938 4.5 1C4.0142 1.83958 3.72284 2.7774 3.64738 3.74446C3.57192 4.71151 3.71426 5.68318 4.06395 6.58795C3.37974 7.59509 3.00949 8.78247 3 10V11C3 12.5913 3.63214 14.1174 4.75736 15.2426C5.88258 16.3679 7.4087 17 9 17H15C16.5913 17 18.1174 16.3679 19.2426 15.2426C20.3679 14.1174 21 12.5913 21 11V10C20.9905 8.78247 20.6203 7.59509 19.9361 6.58795C20.2857 5.68318 20.4281 4.71151 20.3526 3.74446C20.2772 2.7774 19.9858 1.83958 19.5 1C18.4083 0.999379 17.3341 1.27393 16.3766 1.79827C15.4191 2.32262 14.6093 3.07984 14.0218 3.99998L9.97812 3.99992Z" stroke="black" stroke-opacity="0.48" stroke-width="2" stroke-linecap="round" stroke-linejoin="round"/>
</svg>
