<svg width="64" height="64" viewBox="0 0 64 64" fill="none" xmlns="http://www.w3.org/2000/svg">
<path opacity="0.2" d="M32 54C32 54 7 40 7 23C7.00051 19.9954 8.04163 17.0836 9.94636 14.7598C11.8511 12.436 14.5019 10.8436 17.448 10.2534C20.3941 9.66312 23.4537 10.1114 26.1066 11.5221C28.7596 12.9328 30.842 15.2187 32 17.9913L32 17.9913C33.1579 15.2187 35.2404 12.9328 37.8934 11.5221C40.5463 10.1114 43.6059 9.66312 46.552 10.2534C49.4981 10.8436 52.1489 12.436 54.0536 14.7598C55.9584 17.0836 56.9995 19.9954 57 23C57 40 32 54 32 54Z" fill="black"/>
<path d="M8 32H18L22 26L30 38L34 32H40" stroke="black" stroke-width="2" stroke-linecap="round" stroke-linejoin="round"/>
<path d="M7.02857 23.9984C7.00965 23.6668 7.00013 23.334 7 23C7.00051 19.9954 8.04163 17.0836 9.94636 14.7598C11.8511 12.436 14.5019 10.8436 17.448 10.2534C20.3941 9.66312 23.4537 10.1114 26.1066 11.5221C28.7596 12.9328 30.842 15.2187 32 17.9913L32 17.9913C33.1579 15.2187 35.2404 12.9328 37.8934 11.5221C40.5463 10.1114 43.6059 9.66312 46.552 10.2534C49.4981 10.8436 52.1489 12.436 54.0536 14.7598C55.9584 17.0836 56.9995 19.9954 57 23C57 40 32 54 32 54C32 54 22.0138 48.4078 14.6644 40.0003" stroke="black" stroke-width="2" stroke-linecap="round" stroke-linejoin="round"/>
</svg>
