<svg width="64" height="64" viewBox="0 0 64 64" fill="none" xmlns="http://www.w3.org/2000/svg">
<path d="M63.1484 19.7569C62.8791 19.1249 62.5874 18.497 62.2731 17.8744C54.2703 2.02073 34.5989 -4.50691 18.3359 3.29446C2.07291 11.0958 -4.62329 30.272 3.37953 46.1256C7.38673 54.0639 14.3195 59.6639 22.285 62.2976L21.558 14.1508C21.537 12.7572 22.6781 11.6117 24.1069 11.5922C25.5356 11.5727 26.7109 12.6866 26.732 14.0801L26.7589 15.868C29.6777 15.2019 33.9321 16.1889 39.4433 22.4792C45.6749 29.5916 54.7662 24.4671 61.1391 20.875C61.8447 20.4773 62.517 20.0984 63.1484 19.7569Z" fill="black"/>
<path d="M64 42.0026C58.9856 44.9442 50.5652 49.3827 43.8895 47.233C41.0952 46.3332 38.9529 44.9822 36.9676 43.7303C33.9172 41.8067 31.2375 40.1169 27.1333 40.6565L27.4792 63.5678C34.0081 64.6243 40.9256 63.7714 47.3167 60.7055C55.5554 56.7534 61.3389 49.8822 64 42.0026Z" fill="black"/>
</svg>
