<svg width="27" height="25" viewBox="0 0 27 25" fill="none" xmlns="http://www.w3.org/2000/svg">
<path d="M6.40186 21.394C7.16217 22.2602 8.0869 22.9667 9.1224 23.4727C10.1579 23.9787 11.2836 24.274 12.4341 24.3416C13.8087 24.2686 15.1055 23.6814 16.0672 22.6964C17.9639 21.0719 19.9553 19.5612 22.0309 18.1722L23.1962 17.6924C23.676 17.4868 24.4986 17.0069 25.2526 16.1158C26.0752 15.019 26.2123 13.8537 26.2123 13.4424C26.1212 12.1453 25.6961 10.8937 24.9784 9.80936C23.1057 13.1464 20.4217 15.9573 17.1747 17.9822C13.9277 20.0071 10.2225 21.1805 6.40186 21.394Z" fill="#0293D6"/>
<path d="M9.00684 1.92629C9.51855 1.38578 10.1349 0.955101 10.8185 0.66048C11.502 0.365859 12.2383 0.213466 12.9826 0.212584C13.4542 0.181009 13.9274 0.243533 14.3746 0.39652C14.8218 0.549506 15.2341 0.789899 15.5875 1.10371C17.5537 2.49669 19.8958 3.26145 22.3052 3.29726C22.9221 3.36581 24.156 3.57145 24.9786 4.59968C25.5955 5.42226 25.6641 6.31338 25.6641 6.72467C25.6089 7.78388 25.3772 8.82644 24.9786 9.80935L9.00684 1.92629Z" fill="#EBE638"/>
<path d="M6.4018 21.394C5.78487 21.3255 4.96229 21.1198 4.00261 20.7085C3.04293 20.2972 1.87761 19.8174 1.12358 18.515C0.643744 17.6924 0.575195 16.8698 0.575195 16.3214C0.591931 14.8671 0.943787 13.4362 1.60342 12.14C2.25969 10.5378 2.69775 8.85477 2.90584 7.13596L3.24858 5.76499C3.45422 5.07951 3.59132 4.39403 4.07116 3.70854L4.82519 2.88596C6.0706 2.10295 7.54444 1.76469 9.00664 1.92629C7.04872 4.7271 5.79046 7.95632 5.33726 11.3434C4.88405 14.7306 5.24909 18.177 6.4018 21.394Z" fill="#BAD147"/>
<path d="M9.00664 1.9263C8.93809 1.9263 12.7082 2.13194 15.0389 2.95452L16.9582 3.7771C16.2042 3.70856 11.4058 3.50291 7.77277 7.13597C3.18004 11.7973 4.6881 18.1722 4.75665 18.515C3.69232 17.1759 3.15579 15.4932 3.24858 13.7852C3.33883 11.5183 3.89694 9.29458 4.88785 7.25376C5.87877 5.21295 7.28107 3.39914 9.00664 1.9263Z" fill="#78B650"/>
<path d="M18.1924 18.8577C19.4892 16.5003 20.0637 13.8134 19.8443 11.1318C19.6249 8.45015 18.6213 5.89237 16.9585 3.7771C18.9441 4.10907 20.7704 5.0703 22.1682 6.51903C22.9907 7.20451 24.019 8.23274 24.9786 9.80935C23.6233 13.4096 21.2691 16.5485 18.1924 18.8577Z" fill="#2F8260"/>
</svg>
