<svg width="30" height="27" viewBox="0 0 30 27" fill="none" xmlns="http://www.w3.org/2000/svg">
<g opacity="0.2">
<path d="M29 12C29 11.3666 28.7995 10.7495 28.4272 10.237C28.055 9.72456 27.5302 9.34304 26.9278 9.14713C26.3255 8.95121 25.6766 8.95095 25.0741 9.14638C24.4717 9.34181 23.9465 9.72291 23.5739 10.2351L23.574 10.2348C21.2855 8.84354 18.285 8 15 8C11.715 8 8.7146 8.84354 6.42603 10.2348L6.42615 10.2351C6.16398 9.87479 5.82484 9.57743 5.43338 9.36458C5.04193 9.15174 4.60797 9.02876 4.16305 9.00458C3.71812 8.9804 3.2734 9.05562 2.86118 9.22479C2.44896 9.39396 2.0796 9.65282 1.77992 9.98257C1.48024 10.3123 1.25778 10.7047 1.12868 11.1311C0.999584 11.5576 0.967101 12.0075 1.03359 12.4481C1.10008 12.8887 1.26387 13.3089 1.51307 13.6783C1.76227 14.0477 2.09061 14.3569 2.47425 14.5836L2.47395 14.5835C2.16229 15.3511 2.00138 16.1715 2 17C2 21.9706 7.82031 26 15 26C22.1797 26 28 21.9706 28 17C27.9986 16.1715 27.8377 15.3511 27.5261 14.5835L27.5258 14.5836C27.975 14.3184 28.3473 13.9406 28.6058 13.4875C28.8644 13.0344 29.0002 12.5217 29 12Z" fill="black"/>
<path d="M23.5415 10.2882L23.5706 10.2404L23.6244 10.2718C23.9893 9.77035 24.5035 9.39719 25.0934 9.20583C25.6834 9.01447 26.3187 9.01473 26.9085 9.20656C27.4983 9.39839 28.0122 9.77196 28.3767 10.2738C28.7412 10.7755 28.9375 11.3798 28.9375 12C28.9377 12.5108 28.8047 13.0128 28.5516 13.4565C28.2984 13.9001 27.9339 14.2701 27.494 14.5297L27.5204 14.5857L27.4682 14.607C27.7768 15.3672 27.9361 16.1797 27.9375 17.0001C27.9375 19.459 26.4979 21.6918 24.1568 23.3126C21.816 24.9331 18.5787 25.9375 15 25.9375C11.4213 25.9375 8.18403 24.9331 5.84319 23.3126C3.50212 21.6918 2.06251 19.459 2.0625 17C2.06388 16.1796 2.22323 15.3671 2.53185 14.607L2.48127 14.5864L2.50604 14.5297C2.13039 14.3078 1.80889 14.005 1.56488 13.6434C1.32088 13.2817 1.1605 12.8702 1.09539 12.4388C1.03029 12.0073 1.06209 11.5668 1.1885 11.1493C1.31491 10.7317 1.53274 10.3475 1.82617 10.0246C2.11961 9.70172 2.48128 9.44825 2.88491 9.28261C3.28854 9.11697 3.724 9.04331 4.15966 9.06698C4.59531 9.09066 5.02023 9.21108 5.40353 9.41949C5.78683 9.6279 6.1189 9.91907 6.37562 10.2719L6.42946 10.2405L6.45849 10.2882C8.73633 8.90347 11.7253 8.0625 15 8.0625C18.2748 8.0625 21.2637 8.90347 23.5415 10.2882Z" stroke="black" stroke-opacity="0.48" stroke-width="0.125"/>
</g>
<path d="M22.5 5C23.6046 5 24.5 4.10457 24.5 3C24.5 1.89543 23.6046 1 22.5 1C21.3954 1 20.5 1.89543 20.5 3C20.5 4.10457 21.3954 5 22.5 5Z" stroke="black" stroke-opacity="0.48" stroke-width="2" stroke-linecap="round" stroke-linejoin="round"/>
<path d="M19.128 21C17.8512 21.6571 16.4359 21.9999 14.9998 21.9999C13.5638 21.9999 12.1485 21.6571 10.8716 21" stroke="black" stroke-opacity="0.48" stroke-width="2" stroke-linecap="round" stroke-linejoin="round"/>
<path d="M15 8L16 2L20.5231 2.69587" stroke="black" stroke-opacity="0.48" stroke-width="2" stroke-linecap="round" stroke-linejoin="round"/>
<path d="M6.42616 10.2348C8.71473 8.84354 11.7152 8 15.0002 8C18.2852 8 21.2856 8.84354 23.5742 10.2348L23.574 10.2351C23.8362 9.87479 24.1753 9.57742 24.5668 9.36458C24.9582 9.15174 25.3922 9.02876 25.8371 9.00458C26.282 8.9804 26.7268 9.05563 27.139 9.22479C27.5512 9.39396 27.9206 9.65282 28.2202 9.98257C28.5199 10.3123 28.7424 10.7047 28.8715 11.1311C29.0006 11.5576 29.0331 12.0075 28.9666 12.4481C28.9001 12.8887 28.7363 13.3089 28.4871 13.6783C28.2379 14.0477 27.9096 14.3569 27.526 14.5836L27.5262 14.5835C27.8379 15.3511 27.9988 16.1715 28.0002 17C28.0002 21.9706 22.1799 26 15.0002 26C7.82046 26 2.00016 21.9706 2.00016 17C2.00154 16.1715 2.16245 15.3511 2.47412 14.5835L2.47437 14.5836C2.09071 14.3569 1.76234 14.0477 1.51312 13.6783C1.26391 13.3089 1.1001 12.8887 1.0336 12.448C0.967099 12.0074 0.999578 11.5575 1.12868 11.1311C1.25777 10.7046 1.48025 10.3122 1.77994 9.98242C2.07963 9.65266 2.44902 9.39379 2.86126 9.22463C3.27349 9.05546 3.71824 8.98024 4.16318 9.00443C4.60812 9.02862 5.04209 9.15162 5.43356 9.36449C5.82502 9.57736 6.16416 9.87475 6.42633 10.2351L6.42616 10.2348Z" stroke="black" stroke-opacity="0.48" stroke-width="2" stroke-linecap="round" stroke-linejoin="round"/>
<path d="M10 17.5C11.1046 17.5 12 16.6046 12 15.5C12 14.3954 11.1046 13.5 10 13.5C8.89543 13.5 8 14.3954 8 15.5C8 16.6046 8.89543 17.5 10 17.5Z" fill="black"/>
<path d="M11.9375 15.5C11.9375 16.5701 11.0701 17.4375 10 17.4375C8.92995 17.4375 8.0625 16.5701 8.0625 15.5C8.0625 14.4299 8.92995 13.5625 10 13.5625C11.0701 13.5625 11.9375 14.4299 11.9375 15.5Z" stroke="black" stroke-opacity="0.48" stroke-width="0.125"/>
<path d="M20 17.5C21.1046 17.5 22 16.6046 22 15.5C22 14.3954 21.1046 13.5 20 13.5C18.8954 13.5 18 14.3954 18 15.5C18 16.6046 18.8954 17.5 20 17.5Z" fill="black"/>
<path d="M21.9375 15.5C21.9375 16.5701 21.0701 17.4375 20 17.4375C18.9299 17.4375 18.0625 16.5701 18.0625 15.5C18.0625 14.4299 18.9299 13.5625 20 13.5625C21.0701 13.5625 21.9375 14.4299 21.9375 15.5Z" stroke="black" stroke-opacity="0.48" stroke-width="0.125"/>
</svg>
