<svg width="64" height="64" viewBox="0 0 64 64" fill="none" xmlns="http://www.w3.org/2000/svg">
<path opacity="0.2" d="M33.1193 45.3066C34.955 46.5319 37.0243 47.3641 39.1972 47.751C41.37 48.1378 43.5994 48.0709 45.7452 47.5545C47.8909 47.038 49.9066 46.0832 51.6655 44.75C53.4244 43.4169 54.8884 41.7343 55.9655 39.8079C57.0427 37.8816 57.7096 35.7532 57.9243 33.5567C58.1391 31.3601 57.8971 29.1429 57.2135 27.0444C56.5299 24.9459 55.4195 23.0115 53.9522 21.3629C52.4849 19.7143 50.6923 18.3872 48.6872 17.4649C48.2334 17.2557 47.8745 16.8841 47.6814 16.4232C46.3846 13.3347 44.2046 10.6978 41.4149 8.84352C38.6252 6.98921 35.3501 6 32.0003 6C28.6505 6 25.3754 6.98921 22.5857 8.84352C19.796 10.6978 17.616 13.3347 16.3192 16.4232C16.1261 16.8841 15.7672 17.2557 15.3134 17.4649C13.308 18.387 11.5151 19.7141 10.0474 21.3627C8.5797 23.0113 7.46902 24.9457 6.7852 27.0444C6.10138 29.143 5.85921 31.3605 6.07392 33.5573C6.28863 35.7541 6.95558 37.8827 8.03281 39.8092C9.11005 41.7357 10.5743 43.4185 12.3334 44.7517C14.0925 46.085 16.1085 47.0398 18.2545 47.5561C20.4005 48.0725 22.6301 48.1392 24.8032 47.752C26.9762 47.3649 29.0456 46.5323 30.8813 45.3066C31.2122 45.0845 31.6018 44.9659 32.0003 44.9659C32.3989 44.9659 32.7884 45.0845 33.1193 45.3066Z" fill="black"/>
<path d="M32 58V22" stroke="black" stroke-width="2" stroke-linecap="round" stroke-linejoin="round"/>
<path d="M32 38L20 32" stroke="black" stroke-width="2" stroke-linecap="round" stroke-linejoin="round"/>
<path d="M32 32L44 26" stroke="black" stroke-width="2" stroke-linecap="round" stroke-linejoin="round"/>
<path d="M33.1193 45.3066C34.955 46.5319 37.0243 47.3641 39.1972 47.751C41.37 48.1378 43.5994 48.0709 45.7452 47.5545C47.8909 47.038 49.9066 46.0832 51.6655 44.75C53.4244 43.4169 54.8884 41.7343 55.9655 39.8079C57.0427 37.8816 57.7096 35.7532 57.9243 33.5567C58.1391 31.3601 57.8971 29.1429 57.2135 27.0444C56.5299 24.9459 55.4195 23.0115 53.9522 21.3629C52.4849 19.7143 50.6923 18.3872 48.6872 17.4649C48.2334 17.2557 47.8745 16.8841 47.6814 16.4232C46.3846 13.3347 44.2046 10.6978 41.4149 8.84352C38.6252 6.98921 35.3501 6 32.0003 6C28.6505 6 25.3754 6.98921 22.5857 8.84352C19.796 10.6978 17.616 13.3347 16.3192 16.4232C16.1261 16.8841 15.7672 17.2557 15.3134 17.4649C13.308 18.387 11.5151 19.7141 10.0474 21.3627C8.5797 23.0113 7.46902 24.9457 6.7852 27.0444C6.10138 29.143 5.85921 31.3605 6.07392 33.5573C6.28863 35.7541 6.95558 37.8827 8.03281 39.8092C9.11005 41.7357 10.5743 43.4185 12.3334 44.7517C14.0925 46.085 16.1085 47.0398 18.2545 47.5561C20.4005 48.0725 22.6301 48.1392 24.8032 47.752C26.9762 47.3649 29.0456 46.5323 30.8813 45.3066C31.2122 45.0845 31.6018 44.9659 32.0003 44.9659C32.3989 44.9659 32.7884 45.0845 33.1193 45.3066Z" stroke="black" stroke-width="2" stroke-linecap="round" stroke-linejoin="round"/>
</svg>
