<svg width="26" height="23" viewBox="0 0 26 23" fill="none" xmlns="http://www.w3.org/2000/svg">
<path fill-rule="evenodd" clip-rule="evenodd" d="M5.0567 0.314157L0.382012 10.1333C0.364223 10.1699 0.358586 10.2111 0.365925 10.2511C0.373264 10.291 0.393193 10.3276 0.422799 10.3554L13.048 22.4534C13.0839 22.4878 13.1316 22.507 13.1813 22.507C13.231 22.507 13.2788 22.4878 13.3146 22.4534L25.9399 10.3562C25.9695 10.3284 25.9894 10.2918 25.9967 10.2518C26.0041 10.2119 25.9984 10.1706 25.9806 10.1341L21.306 0.314912C21.2909 0.281935 21.2666 0.253999 21.2361 0.234444C21.2055 0.214888 21.17 0.204539 21.1337 0.204635H5.23043C5.19399 0.204182 5.1582 0.214281 5.12737 0.233714C5.09655 0.253148 5.072 0.281085 5.0567 0.314157Z" fill="#50AF95"/>
<path fill-rule="evenodd" clip-rule="evenodd" d="M14.8037 11.1417C14.7131 11.1485 14.2448 11.1764 13.2002 11.1764C12.3693 11.1764 11.7794 11.1515 11.5724 11.1417C8.36157 11.0004 5.96493 10.4415 5.96493 9.77229C5.96493 9.10308 8.36157 8.54489 11.5724 8.40138V10.585C11.7824 10.6001 12.3837 10.6356 13.2145 10.6356C14.2115 10.6356 14.7108 10.5941 14.8007 10.5858V8.40289C18.0048 8.54565 20.3961 9.10459 20.3961 9.77229C20.3961 10.44 18.0055 10.9989 14.8007 11.1409L14.8037 11.1417ZM14.8037 8.17705V6.22303H19.2752V3.24329H7.10094V6.22303H11.5717V8.1763C7.93783 8.34322 5.20508 9.06304 5.20508 9.92562C5.20508 10.7882 7.93783 11.5073 11.5717 11.6749V17.9366H14.803V11.6727C18.4285 11.5058 21.1567 10.7867 21.1567 9.92487C21.1567 9.06305 18.4308 8.34398 14.803 8.1763L14.8037 8.17705Z" fill="white"/>
</svg>
